<svg xmlns="http://www.w3.org/2000/svg" viewBox="0 0 215.37 164.75">
  <defs>
    <style>
      .a, .c {
        fill: #fff;
      }

      .a {
        stroke: #39b54a;
        stroke-miterlimit: 10;
        stroke-width: 0.75px;
      }

      .b {
        fill: #39b54a;
      }

      .d {
        fill: #29abe2;
      }
    </style>
  </defs>
  <title>Ресурс 4</title>
  <g>
    <polygon class="a" points="38.62 29.75 211.62 43.75 211.62 103.75 66.79 120.92 38.62 29.75"/>
    <g>
      <path class="b" d="M3.62,7.5h26L26,4.75C37.62,42.9,49.8,80.93,60.87,119.24c.32,1.09,0-.74,0-.38.06.76,0,1.54,0,2.3v27.09A3.8,3.8,0,0,0,64.62,152h147c4.83,0,4.83-7.5,0-7.5h-147l3.75,3.75c0-9.67,1.05-19.93,0-29.54a39.84,39.84,0,0,0-2-7L61.62,96,43.7,37.1,33.24,2.75A3.84,3.84,0,0,0,29.62,0h-26c-4.83,0-4.83,7.5,0,7.5Z"/>
      <path class="b" d="M38.21,33.25l58.39,5.14,93.64,8.24,21.39,1.88-3.75-3.75v59l3.75-3.75L82.8,115.44l-18.17,2.18,3.62,2.75L45.16,40.1,41.82,28.5c-1.33-4.63-8.57-2.66-7.23,2l23.08,80.28L61,122.37c.41,1.43,2,2.95,3.62,2.75l128.83-15.44,18.17-2.18c2-.24,3.75-1.52,3.75-3.75v-59A3.84,3.84,0,0,0,211.62,41l-58.39-5.14L59.6,27.63,38.21,25.75C33.4,25.33,33.43,32.83,38.21,33.25Z"/>
      <g>
        <line class="c" x1="211.62" y1="75.44" x2="51.41" y2="75.44"/>
        <path class="b" d="M211.62,71.69H51.41c-4.83,0-4.83,7.5,0,7.5H211.62c4.83,0,4.83-7.5,0-7.5Z"/>
      </g>
      <g>
        <line class="c" x1="64.62" y1="121.75" x2="64.62" y2="31.82"/>
        <path class="b" d="M68.37,121.75V31.82c0-4.83-7.5-4.83-7.5,0v89.93c0,4.83,7.5,4.83,7.5,0Z"/>
      </g>
      <g>
        <line class="c" x1="83.62" y1="119.22" x2="83.62" y2="33.4"/>
        <path class="b" d="M87.37,119.22V33.4c0-4.83-7.5-4.83-7.5,0v85.81c0,4.83,7.5,4.83,7.5,0Z"/>
      </g>
      <g>
        <line class="c" x1="101.91" y1="116.78" x2="101.91" y2="35.29"/>
        <path class="b" d="M105.66,116.78V35.29c0-4.83-7.5-4.83-7.5,0v81.49c0,4.83,7.5,4.83,7.5,0Z"/>
      </g>
      <g>
        <line class="c" x1="119.91" y1="114.25" x2="119.91" y2="38.25"/>
        <path class="b" d="M123.66,114.25v-76c0-4.83-7.5-4.83-7.5,0v76c0,4.83,7.5,4.83,7.5,0Z"/>
      </g>
      <g>
        <line class="c" x1="136.91" y1="112.25" x2="136.91" y2="38.29"/>
        <path class="b" d="M140.66,112.25v-74c0-4.83-7.5-4.83-7.5,0v74c0,4.83,7.5,4.83,7.5,0Z"/>
      </g>
      <g>
        <line class="c" x1="151.91" y1="109.25" x2="151.91" y2="41.25"/>
        <path class="b" d="M155.66,109.25v-68c0-4.83-7.5-4.83-7.5,0v68c0,4.83,7.5,4.83,7.5,0Z"/>
      </g>
      <g>
        <line class="c" x1="164.91" y1="109.25" x2="164.91" y2="41.29"/>
        <path class="b" d="M168.66,109.25v-68c0-4.83-7.5-4.83-7.5,0v68c0,4.83,7.5,4.83,7.5,0Z"/>
      </g>
      <g>
        <line class="c" x1="176.91" y1="106.25" x2="176.91" y2="42.25"/>
        <path class="b" d="M180.66,106.25v-64c0-4.83-7.5-4.83-7.5,0v64c0,4.83,7.5,4.83,7.5,0Z"/>
      </g>
      <g>
        <line class="c" x1="188.91" y1="106.25" x2="188.91" y2="43.25"/>
        <path class="b" d="M192.66,106.25v-63c0-4.83-7.5-4.83-7.5,0v63c0,4.83,7.5,4.83,7.5,0Z"/>
      </g>
      <g>
        <line class="c" x1="200.91" y1="103.25" x2="200.91" y2="45.25"/>
        <path class="b" d="M204.66,103.25v-58c0-4.83-7.5-4.83-7.5,0v58c0,4.83,7.5,4.83,7.5,0Z"/>
      </g>
      <circle class="d" cx="190.62" cy="147.75" r="17"/>
      <circle class="d" cx="91.62" cy="147.75" r="17"/>
      <circle class="c" cx="190.62" cy="147.75" r="7"/>
      <circle class="c" cx="91.62" cy="147.75" r="7"/>
      <path class="a" d="M38.21,31.94"/>
    </g>
  </g>
</svg>
