<?xml version="1.0" encoding="utf-8"?>
<!-- Generator: Adobe Illustrator 21.1.0, SVG Export Plug-In . SVG Version: 6.00 Build 0)  -->
<svg version="1.1" id="Слой_1" xmlns="http://www.w3.org/2000/svg" xmlns:xlink="http://www.w3.org/1999/xlink" x="0px" y="0px"
	 viewBox="0 0 1366 768" style="enable-background:new 0 0 1366 768;" xml:space="preserve">
<style type="text/css">
	.st0{fill:#FF9A00;}
	.st1{fill:#FCAC4C;}
	.st2{fill:#007CB2;}
	.st3{fill:none;stroke:#603813;stroke-miterlimit:10;stroke-dasharray:7;}
	.st4{fill:#DB8926;}
	.st5{fill:#00739B;}
	.st6{clip-path:url(#SVGID_2_);}
	.st7{fill:#BD3D44;}
	.st8{fill:#FFFFFF;}
	.st9{fill:#192F5D;}
	.st10{font-family:'MyriadPro-Regular';}
	.st11{font-size:18px;}
	.st12{fill:#C0C0C0;}
	.st13{fill:none;}
	.st14{fill:none;stroke:#A33614;stroke-width:5;stroke-miterlimit:10;}
	.st15{fill:none;stroke:#FF8A65;stroke-width:5;stroke-miterlimit:10;}
	.st16{fill:none;stroke:#841F03;stroke-width:5;stroke-miterlimit:10;}
	.st17{fill:#FFFFFF;stroke:#754C24;stroke-width:2;stroke-miterlimit:10;stroke-dasharray:7;}
	.st18{fill:none;stroke:#EFEFEF;stroke-miterlimit:10;}
	.st19{fill:#2BA00A;}
	.st20{font-family:'SegoeUI';}
	.st21{letter-spacing:32;}
	.st22{fill:#EF2525;}
	.st23{font-family:'SegoeUI-Italic';}
</style>
<g id="XMLID_1_">
	<g>
		<path class="st0" d="M367.7-0.7H1061c-44.9,164.1-210.6,285.9-408.3,285.9c-159.1,0-297.5-78.9-368.9-195.4l-284.2,307L-0.1-0.8
			L368-1L367.7-0.7z"/>
	</g>
	<g>
	</g>
</g>
<path class="st1" d="M682,284c-23.5,1.5-51.6,1.5-83-2c-35.3-3.9-65.6-11.3-90-19c9.3-21.7,18.7-43.3,28-65c21.5,6.6,47,12.9,76,17
	c25.8,3.7,49.4,5,70,5C682.7,241.3,682.3,262.7,682,284z"/>
<path class="st1" d="M510,263c-15.9-5.1-33.6-11.8-52.4-20.7c-20.2-9.5-37.8-19.7-52.6-29.3c12.9-18.4,25.8-36.7,38.8-55.1
	c13.5,7.4,28.6,14.9,45.2,22.1c17,7.3,33.1,13.2,48,18C528,219.7,519,241.3,510,263z"/>
<polygon class="st2" points="1366,-0.8 1366.2,392.7 972.5,-1 "/>
<line class="st3" x1="1033" y1="33" x2="1364.5" y2="362.5"/>
<g>
	<rect y="-1" class="st4" width="323" height="37"/>
</g>
<line class="st3" x1="2" y1="33.5" x2="323" y2="33.5"/>
<g>
	<rect x="1043" y="-1" class="st5" width="323" height="37"/>
</g>
<rect x="1236.4" y="-1.2" class="st2" width="130" height="34"/>
<line class="st3" x1="1049.1" y1="33.5" x2="1366.5" y2="33.5"/>
<g>
	<g>
		<defs>
			<rect id="SVGID_1_" x="1247.6" y="7.1" width="25" height="18.7"/>
		</defs>
		<clipPath id="SVGID_2_">
			<use xlink:href="#SVGID_1_"  style="overflow:visible;"/>
		</clipPath>
		<g transform="scale(.9375)" class="st6">
			<g>
				<path class="st7" d="M1330.8,7.6h38v1.5h-38V7.6z M1330.8,10.7h38v1.5h-38V10.7z M1330.8,13.8h38v1.5h-38V13.8z M1330.8,16.8h38
					v1.5h-38V16.8z M1330.8,19.9h38v1.5h-38V19.9z M1330.8,23h38v1.5h-38V23z M1330.8,26.1h38v1.5h-38V26.1z"/>
				<path class="st8" d="M1330.8,9.1h38v1.5h-38V9.1z M1330.8,12.2h38v1.5h-38V12.2z M1330.8,15.3h38v1.5h-38V15.3z M1330.8,18.4h38
					v1.5h-38V18.4z M1330.8,21.4h38V23h-38V21.4z M1330.8,24.5h38v1.5h-38V24.5z"/>
			</g>
			<path class="st9" d="M1330.8,7.6h15.2v10.8h-15.2V7.6z"/>
			<g>
				<path class="st8" d="M1332.1,8.1l0.1,0.4h0.4l-0.4,0.3l0.1,0.4l-0.4-0.3l-0.4,0.3l0.1-0.4l-0.4-0.3h0.4L1332.1,8.1z M1334.6,8.1
					l0.1,0.4h0.4l-0.4,0.3l0.1,0.4l-0.4-0.3l-0.4,0.3l0.1-0.4l-0.4-0.3h0.4L1334.6,8.1z M1337.1,8.1l0.1,0.4h0.4l-0.4,0.3l0.1,0.4
					l-0.4-0.3l-0.4,0.3l0.1-0.4l-0.4-0.3h0.4L1337.1,8.1z M1339.7,8.1l0.1,0.4h0.4l-0.4,0.3l0.1,0.4l-0.4-0.3l-0.4,0.3l0.1-0.4
					l-0.4-0.3h0.4L1339.7,8.1z M1342.2,8.1l0.1,0.4h0.4l-0.4,0.3l0.1,0.4l-0.4-0.3l-0.4,0.3l0.1-0.4l-0.4-0.3h0.4L1342.2,8.1z
					 M1344.7,8.1l0.1,0.4h0.4l-0.4,0.3l0.1,0.4l-0.4-0.3l-0.4,0.3l0.1-0.4l-0.4-0.3h0.4L1344.7,8.1z M1333.3,9.1l0.1,0.4h0.4
					l-0.4,0.3l0.1,0.4l-0.4-0.3l-0.4,0.3l0.1-0.4l-0.4-0.3h0.4L1333.3,9.1z M1335.9,9.1l0.1,0.4h0.4l-0.4,0.3l0.1,0.4l-0.4-0.3
					l-0.4,0.3l0.1-0.4l-0.4-0.3h0.4L1335.9,9.1z M1338.4,9.1l0.1,0.4h0.4l-0.4,0.3l0.1,0.4l-0.4-0.3l-0.4,0.3l0.1-0.4l-0.4-0.3h0.4
					L1338.4,9.1z M1340.9,9.1l0.1,0.4h0.4l-0.4,0.3l0.1,0.4l-0.4-0.3l-0.4,0.3l0.1-0.4l-0.4-0.3h0.4L1340.9,9.1z M1343.5,9.1
					l0.1,0.4h0.4l-0.4,0.3l0.1,0.4l-0.4-0.3l-0.4,0.3l0.1-0.4l-0.4-0.3h0.4L1343.5,9.1z M1332.1,10.2l0.1,0.4h0.4l-0.4,0.3l0.1,0.4
					l-0.4-0.3l-0.4,0.3l0.1-0.4l-0.4-0.3h0.4L1332.1,10.2z M1334.6,10.2l0.1,0.4h0.4l-0.4,0.3l0.1,0.4l-0.4-0.3l-0.4,0.3l0.1-0.4
					l-0.4-0.3h0.4L1334.6,10.2z M1337.1,10.2l0.1,0.4h0.4l-0.4,0.3l0.1,0.4l-0.4-0.3l-0.4,0.3l0.1-0.4l-0.4-0.3h0.4L1337.1,10.2z
					 M1339.7,10.2l0.1,0.4h0.4l-0.4,0.3l0.1,0.4l-0.4-0.3l-0.4,0.3l0.1-0.4l-0.4-0.3h0.4L1339.7,10.2z M1342.2,10.2l0.1,0.4h0.4
					l-0.4,0.3l0.1,0.4l-0.4-0.3l-0.4,0.3l0.1-0.4l-0.4-0.3h0.4L1342.2,10.2z M1344.7,10.2l0.1,0.4h0.4l-0.4,0.3l0.1,0.4l-0.4-0.3
					l-0.4,0.3l0.1-0.4l-0.4-0.3h0.4L1344.7,10.2z M1333.3,11.3l0.1,0.4h0.4l-0.4,0.3l0.1,0.4l-0.4-0.3l-0.4,0.3l0.1-0.4l-0.4-0.3
					h0.4L1333.3,11.3z M1335.9,11.3l0.1,0.4h0.4l-0.4,0.3l0.1,0.4l-0.4-0.3l-0.4,0.3l0.1-0.4l-0.4-0.3h0.4L1335.9,11.3z
					 M1338.4,11.3l0.1,0.4h0.4l-0.4,0.3l0.1,0.4l-0.4-0.3l-0.4,0.3l0.1-0.4l-0.4-0.3h0.4L1338.4,11.3z M1340.9,11.3l0.1,0.4h0.4
					l-0.4,0.3l0.1,0.4l-0.4-0.3l-0.4,0.3l0.1-0.4l-0.4-0.3h0.4L1340.9,11.3z M1343.5,11.3l0.1,0.4h0.4l-0.4,0.3l0.1,0.4l-0.4-0.3
					l-0.4,0.3l0.1-0.4l-0.4-0.3h0.4L1343.5,11.3z M1332.1,12.4l0.1,0.4h0.4l-0.4,0.3l0.1,0.4l-0.4-0.3l-0.4,0.3l0.1-0.4l-0.4-0.3
					h0.4L1332.1,12.4z M1334.6,12.4l0.1,0.4h0.4l-0.4,0.3l0.1,0.4l-0.4-0.3l-0.4,0.3l0.1-0.4l-0.4-0.3h0.4L1334.6,12.4z
					 M1337.1,12.4l0.1,0.4h0.4l-0.4,0.3l0.1,0.4l-0.4-0.3l-0.4,0.3l0.1-0.4l-0.4-0.3h0.4L1337.1,12.4z M1339.7,12.4l0.1,0.4h0.4
					l-0.4,0.3l0.1,0.4l-0.4-0.3l-0.4,0.3l0.1-0.4l-0.4-0.3h0.4L1339.7,12.4z M1342.2,12.4l0.1,0.4h0.4l-0.4,0.3l0.1,0.4l-0.4-0.3
					l-0.4,0.3l0.1-0.4l-0.4-0.3h0.4L1342.2,12.4z M1344.7,12.4l0.1,0.4h0.4l-0.4,0.3l0.1,0.4l-0.4-0.3l-0.4,0.3l0.1-0.4l-0.4-0.3
					h0.4L1344.7,12.4z M1333.3,13.4l0.1,0.4h0.4l-0.4,0.3l0.1,0.4l-0.4-0.3l-0.4,0.3l0.1-0.4l-0.4-0.3h0.4L1333.3,13.4z
					 M1335.9,13.4l0.1,0.4h0.4l-0.4,0.3l0.1,0.4l-0.4-0.3l-0.4,0.3l0.1-0.4l-0.4-0.3h0.4L1335.9,13.4z M1338.4,13.4l0.1,0.4h0.4
					l-0.4,0.3l0.1,0.4l-0.4-0.3l-0.4,0.3l0.1-0.4l-0.4-0.3h0.4L1338.4,13.4z M1340.9,13.4l0.1,0.4h0.4l-0.4,0.3l0.1,0.4l-0.4-0.3
					l-0.4,0.3l0.1-0.4l-0.4-0.3h0.4L1340.9,13.4z M1343.5,13.4l0.1,0.4h0.4l-0.4,0.3l0.1,0.4l-0.4-0.3l-0.4,0.3l0.1-0.4l-0.4-0.3
					h0.4L1343.5,13.4z M1332.1,14.5l0.1,0.4h0.4l-0.4,0.3l0.1,0.4l-0.4-0.3l-0.4,0.3l0.1-0.4l-0.4-0.3h0.4L1332.1,14.5z
					 M1334.6,14.5l0.1,0.4h0.4l-0.4,0.3l0.1,0.4l-0.4-0.3l-0.4,0.3l0.1-0.4l-0.4-0.3h0.4L1334.6,14.5z M1337.1,14.5l0.1,0.4h0.4
					l-0.4,0.3l0.1,0.4l-0.4-0.3l-0.4,0.3l0.1-0.4l-0.4-0.3h0.4L1337.1,14.5z M1339.7,14.5l0.1,0.4h0.4l-0.4,0.3l0.1,0.4l-0.4-0.3
					l-0.4,0.3l0.1-0.4l-0.4-0.3h0.4L1339.7,14.5z M1342.2,14.5l0.1,0.4h0.4l-0.4,0.3l0.1,0.4l-0.4-0.3l-0.4,0.3l0.1-0.4l-0.4-0.3
					h0.4L1342.2,14.5z M1344.7,14.5l0.1,0.4h0.4l-0.4,0.3l0.1,0.4l-0.4-0.3l-0.4,0.3l0.1-0.4l-0.4-0.3h0.4L1344.7,14.5z
					 M1333.3,15.6l0.1,0.4h0.4l-0.4,0.3l0.1,0.4l-0.4-0.3l-0.4,0.3l0.1-0.4l-0.4-0.3h0.4L1333.3,15.6z M1335.9,15.6l0.1,0.4h0.4
					l-0.4,0.3l0.1,0.4l-0.4-0.3l-0.4,0.3l0.1-0.4l-0.4-0.3h0.4L1335.9,15.6z M1338.4,15.6l0.1,0.4h0.4l-0.4,0.3l0.1,0.4l-0.4-0.3
					l-0.4,0.3l0.1-0.4l-0.4-0.3h0.4L1338.4,15.6z M1340.9,15.6l0.1,0.4h0.4l-0.4,0.3l0.1,0.4l-0.4-0.3l-0.4,0.3l0.1-0.4l-0.4-0.3
					h0.4L1340.9,15.6z M1343.5,15.6l0.1,0.4h0.4l-0.4,0.3l0.1,0.4l-0.4-0.3l-0.4,0.3l0.1-0.4l-0.4-0.3h0.4L1343.5,15.6z
					 M1332.1,16.7l0.1,0.4h0.4l-0.4,0.3l0.1,0.4l-0.4-0.3l-0.4,0.3l0.1-0.4l-0.4-0.3h0.4L1332.1,16.7z M1334.6,16.7l0.1,0.4h0.4
					l-0.4,0.3l0.1,0.4l-0.4-0.3l-0.4,0.3l0.1-0.4l-0.4-0.3h0.4L1334.6,16.7z M1337.1,16.7l0.1,0.4h0.4l-0.4,0.3l0.1,0.4l-0.4-0.3
					l-0.4,0.3l0.1-0.4l-0.4-0.3h0.4L1337.1,16.7z M1339.7,16.7l0.1,0.4h0.4l-0.4,0.3l0.1,0.4l-0.4-0.3l-0.4,0.3l0.1-0.4l-0.4-0.3
					h0.4L1339.7,16.7z M1342.2,16.7l0.1,0.4h0.4l-0.4,0.3l0.1,0.4l-0.4-0.3l-0.4,0.3l0.1-0.4l-0.4-0.3h0.4L1342.2,16.7z
					 M1344.7,16.7l0.1,0.4h0.4l-0.4,0.3l0.1,0.4l-0.4-0.3l-0.4,0.3l0.1-0.4l-0.4-0.3h0.4L1344.7,16.7z"/>
			</g>
		</g>
	</g>
	<text transform="matrix(1 0 0 1 1282.3694 20.8751)" class="st8 st10 st11">In English</text>
</g>
<line class="st3" x1="1044" y1="54" x2="1368.5" y2="377.5"/>
<g>
	<path class="st12" d="M307,0c41.8,126.3,196.3,220,380.5,220S1026.2,126.3,1068,0H307z"/>
</g>
<g>
	<path class="st8" d="M326.3,0c39.2,117.1,183.8,204,356.3,204S999.8,117.1,1039,0H326.3z"/>
</g>
<path class="st1" d="M778,212c-15.1,2.5-31.5,4.6-49,6c-16.3,1.3-31.6,1.9-46,2c-0.3,21.3-0.7,42.7-1,64c17.1-1.2,35.9-3.4,56-7
	c20.5-3.6,39.3-8.2,56-13C788.7,246.7,783.3,229.3,778,212z"/>
<g>
	<g>
		<path d="M704.4,244.4c0.4,6.5,0.6,9.7,1,16.1c-0.9,0.1-1.3,0.1-2.1,0.1c-0.3-5.8-0.5-8.6-0.8-14.4c-3,0.2-4.5,0.3-7.5,0.4
			c0.3,5.8,0.4,8.6,0.7,14.4c-0.9,0-1.3,0.1-2.1,0.1c-0.3-6.5-0.4-9.7-0.7-16.2C697.4,244.8,699.7,244.7,704.4,244.4z"/>
		<path d="M708.5,252.5c-0.1-1.5-0.2-2.7-0.4-3.8c0.8-0.1,1.1-0.1,1.9-0.1c0.1,0.8,0.1,1.2,0.2,2c0,0,0,0,0,0c0.8-1.5,2.1-2.4,4-2.6
			c2.8-0.2,5.2,2,5.4,5.5c0.4,4.2-2.1,6.4-4.9,6.7c-1.6,0.1-3-0.4-3.8-1.5c0,0,0,0,0,0c0.2,2.5,0.3,3.8,0.4,6.3
			c-0.9,0.1-1.3,0.1-2.2,0.2C709,260,708.9,257.5,708.5,252.5z M710.9,255.4c0,0.3,0.1,0.6,0.2,0.9c0.5,1.4,1.9,2.3,3.4,2.2
			c2.3-0.2,3.5-2.1,3.2-4.8c-0.2-2.3-1.6-4.2-3.8-4c-1.5,0.1-2.7,1.2-3,2.9c-0.1,0.3-0.1,0.6-0.1,0.9
			C710.8,254.2,710.8,254.6,710.9,255.4z"/>
		<path d="M733.2,252.2c0.4,4.3-2.4,6.5-5.3,6.7c-3.2,0.3-5.9-1.8-6.2-5.4c-0.3-3.9,2-6.4,5.3-6.7
			C730.3,246.5,732.8,248.7,733.2,252.2z M723.8,253.3c0.2,2.5,1.9,4.3,4,4.1c2.1-0.2,3.4-2.3,3.1-4.9c-0.2-2-1.4-4.3-4-4.1
			C724.5,248.7,723.6,251.1,723.8,253.3z"/>
		<path d="M742.4,245.4c0.2,1.9,0.3,2.8,0.6,4.6c2.2-0.3,3.3-0.4,5.6-0.7c-0.2-1.9-0.4-2.8-0.6-4.6c0.8-0.1,1.3-0.2,2.1-0.3
			c0.6,4.6,0.9,6.9,1.5,11.5c-0.9,0.1-1.3,0.2-2.1,0.3c-0.3-2.1-0.4-3.1-0.7-5.2c-2.2,0.3-3.4,0.4-5.6,0.7c0.3,2.1,0.4,3.1,0.6,5.2
			c-0.9,0.1-1.3,0.2-2.1,0.3c-0.5-4.6-0.8-6.9-1.4-11.5C741.2,245.5,741.6,245.5,742.4,245.4z"/>
		<path d="M761.7,254.5c-0.2-0.6-0.2-0.9-0.4-1.4c0,0,0,0-0.1,0c-0.5,1-1.7,2-3.4,2.2c-2.4,0.3-3.8-1.1-4.1-2.8
			c-0.4-2.8,1.9-4.6,6.5-5.3c0-0.1,0-0.1,0-0.2c-0.1-1-0.7-2.6-3-2.3c-1.1,0.2-2.2,0.7-2.9,1.3c-0.3-0.5-0.4-0.8-0.7-1.3
			c0.9-0.8,2.2-1.4,3.7-1.6c3.6-0.5,4.8,1.7,5.1,4c0.3,1.7,0.4,2.6,0.6,4.3c0.1,1,0.3,2,0.6,2.7
			C762.8,254.3,762.5,254.4,761.7,254.5z M760.5,248.7c-2.3,0.3-4.9,1.1-4.6,3.3c0.2,1.4,1.2,1.9,2.3,1.7c1.5-0.2,2.4-1.3,2.6-2.3
			c0-0.2,0.1-0.5,0-0.7C760.7,249.9,760.6,249.5,760.5,248.7z"/>
		<path d="M775.3,251.9c-0.5,0.4-1.7,1-3.3,1.2c-3.6,0.6-6.3-1.4-6.8-4.9c-0.5-3.5,1.5-6.5,5.3-7.1c1.2-0.2,2.4-0.1,3,0.1
			c-0.1,0.7-0.1,1-0.2,1.7c-0.6-0.2-1.4-0.3-2.5-0.1c-2.7,0.4-3.8,2.6-3.4,5c0.4,2.7,2.4,4,4.8,3.6c1.2-0.2,2-0.6,2.5-1
			C774.9,251,775,251.3,775.3,251.9z"/>
	</g>
</g>
<g>
	<g>
		<path d="M441.4,188.9c-1.5,2.4-2.3,3.6-3.8,6.1c0.2,0.1,0.3,0.2,0.6,0.4c3.5-1.2,5.2-1.9,8.6-3.2c0.9,0.5,1.3,0.8,2.2,1.3
			c-3.6,1.3-5.5,1.9-9.2,3.1c2.1,1.7,2.2,3.7,1.8,6c-0.3,1.7-0.7,3.2-0.8,4.8c-0.8-0.5-1.2-0.7-2-1.2c0.1-1.2,0.4-2.7,0.7-4
			c0.5-2.2,0.3-4-2-5.5c-0.2-0.1-0.4-0.2-0.6-0.4c-1.6,2.5-2.4,3.7-4,6.2c-0.7-0.5-1.1-0.7-1.8-1.2c3.6-5.4,5.3-8.1,8.8-13.6
			C440.4,188.3,440.7,188.5,441.4,188.9z"/>
		<path d="M448.6,212c0.2-0.5,0.4-0.8,0.6-1.4c0,0,0,0-0.1,0c-1.1,0.5-2.6,0.5-4.1-0.4c-2.1-1.2-2.4-3.3-1.5-4.7
			c1.5-2.4,4.5-2.4,8.5-0.1c0-0.1,0.1-0.1,0.1-0.2c0.5-0.8,1.1-2.5-1-3.7c-1-0.5-2.1-0.8-3.1-0.8c0.1-0.6,0.2-0.9,0.3-1.4
			c1.2,0,2.6,0.3,3.9,1.1c3.2,1.8,2.7,4.3,1.6,6.3c-0.9,1.5-1.3,2.3-2.2,3.8c-0.5,0.9-1,1.7-1.2,2.5
			C449.6,212.6,449.3,212.4,448.6,212z M451.3,206.7c-2.1-1.2-4.6-2.2-5.8-0.3c-0.7,1.2-0.2,2.2,0.8,2.8c1.4,0.8,2.8,0.5,3.6-0.2
			c0.2-0.1,0.3-0.3,0.5-0.5C450.7,207.8,450.9,207.4,451.3,206.7z"/>
		<path d="M466.1,208.2c-0.3,0.6-0.5,0.9-0.8,1.5c-1.3-0.7-2-1-3.3-1.7c-1.9,3.5-2.9,5.2-4.8,8.7c-0.8-0.4-1.2-0.6-2-1
			c2-3.5,2.9-5.2,4.9-8.7c-1.3-0.7-2-1.1-3.3-1.8c0.3-0.6,0.5-0.9,0.8-1.5C460.9,205.5,462.6,206.4,466.1,208.2z"/>
		<path d="M468.3,222.3c0.2-0.6,0.3-0.8,0.5-1.4c0,0,0,0-0.1,0c-1,0.5-2.6,0.7-4.2-0.1c-2.2-1.1-2.6-3.2-1.8-4.6
			c1.3-2.5,4.4-2.6,8.6-0.6c0-0.1,0.1-0.1,0.1-0.2c0.4-0.9,1-2.5-1.2-3.6c-1-0.5-2.2-0.7-3.2-0.6c0.1-0.6,0.1-0.9,0.2-1.5
			c1.2-0.1,2.6,0.2,4,0.8c3.3,1.6,3,4.2,2,6.3c-0.8,1.6-1.2,2.3-2,3.9c-0.5,0.9-0.9,1.8-1.1,2.6C469.4,222.8,469,222.6,468.3,222.3z
			 M470.7,216.8c-2.2-1.1-4.8-2-5.9,0c-0.6,1.2-0.1,2.2,0.9,2.7c1.4,0.7,2.8,0.3,3.6-0.4c0.2-0.2,0.3-0.4,0.4-0.5
			C470.1,217.9,470.3,217.6,470.7,216.8z"/>
		<path d="M486.8,218c-1.9,4.2-2.9,6.3-4.9,10.6c-0.8-0.4-1.2-0.5-2.1-0.9c1.7-3.6,2.6-5.4,4.3-9c-1.5-0.7-2.3-1-3.8-1.7
			c-0.5,1.1-0.8,1.6-1.3,2.7c-1.4,2.9-2.7,4.8-4.6,5c-0.8,0.2-1.5,0.1-2.6-0.4c0.2-0.6,0.3-0.9,0.5-1.6c0.4,0.1,0.9,0.2,1.3,0.1
			c1.4-0.2,2.2-1.6,3.4-4c0.8-1.7,1.2-2.5,2.1-4.2C482.2,215.9,483.7,216.6,486.8,218z"/>
		<path d="M498.1,228.8c-1.7,4-5.4,4.5-8.3,3.4c-3.1-1.3-4.6-4.4-3-7.8c1.6-3.5,5-4.6,8.1-3.3C498.2,222.5,499.5,225.6,498.1,228.8z
			 M489,225.3c-1.1,2.3-0.4,4.7,1.6,5.5c2,0.8,4.3-0.3,5.3-2.7c0.8-1.8,0.8-4.5-1.6-5.5C491.9,221.6,489.9,223.2,489,225.3z"/>
		<path d="M510,227.1c-0.2,0.6-0.4,1-0.6,1.6c-2-0.7-3-1.1-5-1.8c-1.5,3.7-2.2,5.5-3.8,9.2c-0.9-0.3-1.3-0.5-2.1-0.8
			c1.8-4.3,2.7-6.4,4.5-10.8C505.7,225.6,507.2,226.1,510,227.1z"/>
	</g>
</g>
<g>
	<g>
		<path d="M535.7,230.4c-0.6,2.8-0.9,4.2-1.5,7c0.3,0.1,0.4,0.1,0.7,0.1c2.9-2.3,4.4-3.5,7.2-5.8c1,0.2,1.6,0.3,2.6,0.5
			c-3.1,2.4-4.7,3.6-7.8,6c2.7,0.9,3.5,2.8,3.9,5.1c0.3,1.7,0.5,3.3,1,4.9c-1-0.2-1.4-0.3-2.4-0.5c-0.4-1.2-0.6-2.7-0.8-4.1
			c-0.4-2.3-1.2-3.9-4-4.5c-0.3-0.1-0.4-0.1-0.7-0.1c-0.6,2.9-0.9,4.4-1.5,7.3c-0.9-0.2-1.3-0.3-2.2-0.5c1.4-6.3,2-9.5,3.4-15.8
			C534.4,230.1,534.8,230.2,535.7,230.4z"/>
		<path d="M556.1,244.7c-0.7,4.2-4.2,5.5-7.2,5c-3.4-0.6-5.5-3.4-4.8-7c0.7-3.8,3.8-5.5,7.2-4.9
			C554.7,238.4,556.7,241.2,556.1,244.7z M546.3,243.1c-0.5,2.5,0.7,4.7,2.9,5.1c2.1,0.4,4.1-1.2,4.5-3.8c0.3-1.9-0.3-4.6-2.9-5.1
			C548.3,238.9,546.7,240.9,546.3,243.1z"/>
		<path d="M562,239.9c-0.3,1.8-0.5,2.8-0.8,4.6c2.3,0.4,3.5,0.6,5.8,0.9c0.3-1.8,0.4-2.8,0.7-4.6c0.9,0.1,1.3,0.2,2.2,0.3
			c-0.7,4.6-1.1,6.9-1.8,11.5c-0.9-0.1-1.3-0.2-2.2-0.3c0.3-2.1,0.5-3.1,0.8-5.2c-2.3-0.4-3.5-0.6-5.9-0.9c-0.3,2.1-0.5,3.1-0.9,5.2
			c-0.9-0.1-1.3-0.2-2.2-0.4c0.8-4.6,1.2-6.9,1.9-11.5C560.7,239.7,561.1,239.8,562,239.9z"/>
		<path d="M580.9,254.1c-0.6,0.2-2,0.4-3.7,0.2c-3.8-0.5-5.9-3.2-5.3-6.8c0.5-3.5,3.5-5.7,7.5-5.2c1.3,0.2,2.4,0.6,3,1
			c-0.3,0.6-0.4,0.9-0.7,1.6c-0.5-0.4-1.3-0.7-2.5-0.9c-2.8-0.4-4.6,1.3-5,3.7c-0.4,2.7,1.2,4.6,3.7,4.9c1.3,0.2,2.2,0,2.9-0.2
			C580.7,253.1,580.8,253.4,580.9,254.1z"/>
		<path d="M593.6,244.4c-0.1,0.7-0.1,1-0.2,1.7c-1.5-0.2-2.3-0.3-3.8-0.5c-0.5,3.9-0.7,5.9-1.2,9.9c-0.9-0.1-1.3-0.2-2.2-0.3
			c0.5-3.9,0.7-5.9,1.2-9.9c-1.5-0.2-2.3-0.3-3.8-0.5c0.1-0.7,0.1-1,0.2-1.7C587.7,243.7,589.7,243.9,593.6,244.4z"/>
		<path d="M595.2,248.4c0.2-1.5,0.2-2.7,0.3-3.8c0.8,0.1,1.2,0.1,2,0.2c0,0.8-0.1,1.2-0.1,2c0,0,0,0,0.1,0c1.1-1.3,2.6-2,4.6-1.8
			c3,0.3,5,2.9,4.7,6.4c-0.4,4.2-3.3,6-6.3,5.7c-1.7-0.2-3-1-3.7-2.2c0,0,0,0-0.1,0c-0.3,2.5-0.4,3.8-0.7,6.3
			c-0.9-0.1-1.4-0.1-2.3-0.2C594.3,255.9,594.6,253.4,595.2,248.4z M597,251.7c0,0.3,0,0.6,0,0.9c0.3,1.5,1.5,2.6,3.1,2.8
			c2.4,0.2,4-1.4,4.2-4.1c0.2-2.3-0.9-4.4-3.3-4.7c-1.5-0.2-3.1,0.7-3.7,2.2c-0.1,0.3-0.2,0.6-0.2,0.8
			C597.2,250.5,597.1,250.9,597,251.7z"/>
		<path d="M610.6,246.1c0.8,2.8,1.3,4.2,2.1,7.1c0.2,0.8,0.5,1.7,0.6,2.4c0,0,0,0,0.1,0c0.3-0.7,0.6-1.5,1-2.4c1.2-2.6,1.8-4,3-6.6
			c0.9,0.1,1.4,0.1,2.4,0.2c-1.6,3.2-2.4,4.8-4,8c-1.9,3.8-3.2,5.8-4.9,6.9c-1.2,0.8-2.4,1.1-2.9,1.1c-0.2-0.7-0.2-1.1-0.4-1.8
			c0.6-0.1,1.4-0.4,2.1-0.9c0.6-0.4,1.5-1.1,2.1-2.2c0.1-0.2,0.2-0.4,0.2-0.5c0-0.1,0-0.3-0.1-0.6c-1.5-4.4-2.2-6.6-3.7-11.1
			C609.1,246,609.6,246,610.6,246.1z"/>
		<path d="M624,247.1c-0.1,2-0.2,3-0.3,5c0.2,0,0.3,0,0.5,0c2-1.9,3-2.8,5-4.7c1.1,0.1,1.6,0.1,2.7,0.2c-2.3,2-3.4,3-5.7,4.9
			c2,0.3,3.1,1.6,4,3.8c0.3,0.8,0.7,1.9,1.2,2.9c-1-0.1-1.4-0.1-2.4-0.1c-0.3-0.5-0.7-1.5-1-2.4c-0.7-1.9-1.8-2.8-4-3
			c-0.2,0-0.3,0-0.4,0c-0.1,2-0.2,3.1-0.3,5.1c-0.9-0.1-1.4-0.1-2.3-0.2c0.3-4.6,0.5-7,0.8-11.6C622.7,247,623.1,247.1,624,247.1z"
			/>
		<path d="M642.7,248.1c0,0.7,0,1-0.1,1.7c-1.5-0.1-2.3-0.1-3.9-0.1c-0.2,4-0.2,6-0.4,9.9c-0.9,0-1.4-0.1-2.3-0.1
			c0.2-4,0.3-6,0.4-9.9c-1.5-0.1-2.3-0.1-3.9-0.2c0-0.7,0.1-1,0.1-1.7C636.8,247.8,638.8,247.9,642.7,248.1z"/>
		<path d="M655.5,254.1c-0.1,4.3-3.3,6.1-6.4,6c-3.4-0.1-6-2.5-5.8-6.2c0.1-3.9,2.9-6.1,6.3-6C653.2,248.1,655.5,250.5,655.5,254.1z
			 M645.6,254c-0.1,2.5,1.4,4.5,3.7,4.6c2.2,0.1,3.9-1.8,3.9-4.4c0-2-1-4.5-3.6-4.5C646.9,249.5,645.7,251.8,645.6,254z"/>
		<path d="M658.4,252.2c0-1.5,0-2.7-0.1-3.8c0.8,0,1.2,0,2,0c0,0.8,0.1,1.2,0.1,2c0,0,0,0,0.1,0c0.9-1.4,2.4-2.2,4.4-2.2
			c3,0,5.3,2.4,5.3,5.9c0,4.2-2.7,6.3-5.7,6.3c-1.7,0-3.1-0.7-3.9-1.8c0,0,0,0-0.1,0c0,2.5,0,3.8,0,6.3c-0.9,0-1.4,0-2.3,0
			C658.3,259.8,658.3,257.2,658.4,252.2z M660.6,255.3c0,0.3,0,0.6,0.1,0.9c0.4,1.5,1.8,2.5,3.4,2.5c2.4,0,3.8-1.8,3.8-4.5
			c0-2.3-1.3-4.3-3.7-4.3c-1.5,0-3,1-3.4,2.6c-0.1,0.3-0.2,0.6-0.2,0.9C660.6,254.1,660.6,254.5,660.6,255.3z"/>
	</g>
</g>
<g>
	<g>
		<path class="st0" d="M368.5,171.5c1.9,0,1.9-3,0-3C366.6,168.5,366.6,171.5,368.5,171.5L368.5,171.5z"/>
	</g>
</g>
<path class="st1" d="M312.1,129.7l48.3-39.6c9.9,10.9,22,22.9,36.6,34.9c16.8,13.8,33,24.4,47.2,32.5c-13.1,18.5-26.1,37-39.2,55.5
	c-14.3-9-30.4-20.4-47-35C338.8,161.2,323.7,144.4,312.1,129.7z"/>
<g>
	<g>
		<path d="M364.1,124.6c-0.5,0.5-0.7,0.7-1.3,1.2c-1.9-1.8-2.8-2.7-4.6-4.6c-4.1,4.1-6.2,6.1-10.5,10c-0.6-0.6-0.9-0.9-1.5-1.5
			c4.8-4.4,7.2-6.7,11.8-11.2C360.4,121,361.7,122.2,364.1,124.6z"/>
		<path d="M364,139c-3.2,3.1-6.8,2.3-8.8,0.3c-2.3-2.2-2.3-5.6,0.4-8.2c2.9-2.7,6.3-2.5,8.7-0.3C366.7,133.1,366.7,136.5,364,139z
			 M357.2,132.6c-1.9,1.8-2.2,4.2-0.7,5.6c1.5,1.4,4,1.2,5.9-0.7c1.4-1.4,2.5-3.9,0.7-5.6C361.3,130.1,358.8,131,357.2,132.6z"/>
		<path d="M376.8,142.8c-3.4,3.4-5.1,5.1-8.6,8.4c-0.6-0.6-1-0.9-1.6-1.5c3-2.9,4.5-4.3,7.3-7.2c-1.2-1.1-1.8-1.6-3-2.7
			c-0.9,0.9-1.3,1.3-2.2,2.2c-2.4,2.3-4.3,3.7-6.1,3.3c-0.8-0.1-1.5-0.4-2.3-1.1c0.4-0.5,0.6-0.8,1.1-1.3c0.4,0.2,0.8,0.4,1.2,0.5
			c1.4,0.2,2.7-0.9,4.6-2.7c1.4-1.3,2.1-2,3.4-3.4C373.2,139.5,374.4,140.6,376.8,142.8z"/>
		<path d="M383.5,156.5c-3.2,3.2-6.9,2.5-9.1,0.6c-2.4-2.2-2.6-5.5,0.1-8.2c2.9-2.8,6.5-2.8,9-0.6
			C386.1,150.5,386.1,153.8,383.5,156.5z M376.2,150.3c-1.9,1.9-2.2,4.3-0.6,5.7c1.6,1.4,4.2,1,6.1-0.9c1.5-1.5,2.5-4,0.5-5.6
			C380.4,147.7,377.9,148.7,376.2,150.3z"/>
		<path d="M389.7,154.1c0.8,0.4,2,1.3,3.1,2.2c1.6,1.3,4,3.6,2.1,5.6c-1.1,1.1-2.6,1-3.9,0.4c0,0,0,0,0,0c1.2,1.3,1.5,2.9,0.3,4.1
			c-2.3,2.3-5.7,0-7.5-1.5c-1-0.9-2-1.9-2.5-2.3C384.6,159.2,386.3,157.5,389.7,154.1z M383.8,162.9c0.4,0.5,0.8,0.8,1.3,1.2
			c1.1,0.9,3.1,2.1,4.3,0.8c1.2-1.3,0.2-2.6-1.5-4c-0.5-0.4-0.7-0.6-1.2-1C385.6,161.2,385,161.7,383.8,162.9z M387.8,158.9
			c0.5,0.4,0.8,0.6,1.3,1.1c1.3,1,2.9,1.8,3.9,0.7c0.8-0.9,0.4-1.9-1.3-3.3c-0.6-0.5-0.9-0.7-1.4-1
			C389.3,157.4,388.8,157.9,387.8,158.9z"/>
		<path d="M401.2,163.2c-1.4,1.4-2,2.1-3.4,3.6c1.8,1.4,2.7,2.2,4.6,3.6c1.4-1.4,2.1-2.2,3.4-3.6c0.7,0.5,1,0.8,1.7,1.3
			c-3.4,3.6-5.1,5.4-8.6,8.9c-0.7-0.5-1-0.8-1.7-1.4c1.6-1.6,2.4-2.4,3.9-4c-1.8-1.4-2.8-2.1-4.6-3.6c-1.6,1.6-2.3,2.4-3.9,4
			c-0.7-0.6-1-0.8-1.7-1.4c3.5-3.5,5.2-5.3,8.6-8.8C400.1,162.4,400.5,162.6,401.2,163.2z"/>
		<path d="M407.3,183.3c0.4-0.5,0.6-0.7,1-1.2c0,0,0,0-0.1,0c-1.2,0.3-2.9,0.1-4.3-0.9c-2-1.5-1.8-3.6-0.5-4.8
			c2.1-2.2,5.3-1.7,9.1,1.1c0.1-0.1,0.1-0.1,0.2-0.2c0.7-0.8,1.7-2.3-0.3-3.8c-0.9-0.7-2.1-1.1-3.2-1.2c0.2-0.6,0.4-0.8,0.6-1.4
			c1.3,0.1,2.7,0.7,4,1.6c3,2.2,2,4.7,0.3,6.5c-1.3,1.4-1.9,2-3.2,3.4c-0.8,0.8-1.4,1.6-1.9,2.3
			C408.3,184.1,407.9,183.8,407.3,183.3z M411.4,178.5c-1.9-1.5-4.4-2.8-6.1-1.1c-1,1.1-0.7,2.1,0.2,2.8c1.3,1,2.8,0.8,3.8,0.3
			c0.2-0.1,0.4-0.3,0.6-0.4C410.5,179.5,410.8,179.2,411.4,178.5z"/>
	</g>
</g>
<line class="st13" x1="683" y1="220" x2="682" y2="284"/>
<g>
	<g>
		<image style="overflow:visible;" width="198" height="81" xlink:href="98CA0A79.png"  transform="matrix(1 0 0 1 586 72)">
		</image>
		<path class="st14" d="M586.5,136.2c16.5-2.2,33.5-0.2,49.5,2.8c3.3,0.4,6.6,0.8,9.9,0.9c7,0,13,0,20.4-1.5c2.2,0,4.5,0,6.7,0
			c18,0,36.6,0,53.1,0c2.4,0,4.7,0,7,0c16.8,2.5,32.8-1.5,49.9,0"/>
		<path class="st14" d="M589.6,107.1c15.4,2.9,31.4-1.1,46.8,0.1c2.6-0.1,5.3-0.1,8-0.3c2.7-0.1,5.3-0.3,8-0.5c2.4,0,4.9,0,7.4,0
			c20.5,0,42.6,0,62.2,0c2.2,0,4.3,0,6.4,0c16.6-3.5,34.6,2.5,51.2,0"/>
		<path class="st15" d="M732.5,76.5c0,0,0,4.5,0,11.3c0,3.4,0,7.4,0,11.6c3.5,16.6,0.5,33.6-1.4,50.3"/>
		<path class="st15" d="M761.6,76c6.4,19.5,4.4,39,0.8,58c-0.4,2.7-0.6,5.3-0.8,7.9c-0.2,3.4-0.2,6.9-0.1,10.4"/>
		<path class="st15" d="M636.5,77.5c0,0,0,4.5,0,11.2c0,3.4,0,7.3,0,11.5c0.5,16.9,0.5,34.9,0.6,51.5"/>
		<path class="st15" d="M668.5,79c0,0,0,4.4,0,10.9c-0.4,3.3-0.7,6.7-0.8,10c1.3,17.1-0.7,33.1,0.8,49.8"/>
		<path class="st15" d="M700.5,79c0,0,0,4.4,0,10.9c0,3.3,0,7.1,0,11.2c0.5,15.9,0.5,30.9,0.1,47"/>
		<path class="st14" d="M592,90.6c16,1.4,33-2.6,48.5-0.1c2.3,0,4.7,0,7.1,0c23.2,0,50.2,0,73.7,0c2.4,0,4.7,0,6.9,0
			c15.8-1.5,32.8,0.5,49-0.9"/>
		<path class="st14" d="M586.6,123.1c2.9,0.3,5.8,0.3,8.7,0.1C612,122,628,121,645,124c15,3,29,1,43.1-0.2c2.9-0.2,5.7-0.4,8.6-0.7
			c2.9-0.2,5.8-0.4,8.7-0.6c2.5,0,5,0,7.5,0c2.3,0,4.6,0,6.8,0c2.3,0,4.5,0,6.7,0c18.6-2.5,36.6,3.5,55.8,0"/>
		<path class="st15" d="M652.5,78c0,0,0,4.4,0,11.1c0.2,2.6,0.3,5.2,0.3,7.8c0,2.6,0,5.2,0,7.8c-0.8,16-3.8,30.7-0.9,46.2"/>
		<path class="st15" d="M620.5,76.5c0,0,0,4.5,0,11.3c0,3.4,0,7.4,0,11.6c-0.5,17.5-0.5,34.5-0.4,52.4"/>
		<path class="st15" d="M684.5,79c0,0,0,4.4,0,10.9c0,3.3,0,7.1,0,11.2c1.5,15.9-0.5,31.9,0.1,47.5"/>
		<path class="st15" d="M748.5,75.5c0,0,0,4.6,0,11.5c0,3.4,0,7.5,0,11.8c0.1,2.9,0.1,5.8,0.1,8.7c-1.6,14.6-0.6,29.6-2.4,44.1"/>
		<path class="st15" d="M716.5,77.5c0,0,0,4.5,0,11.2c0,3.4,0,7.3,0,11.4c-0.5,15.9-0.5,31.9-1,48.1"/>
		<path class="st15" d="M604.5,73.5c0,0,0,4.7,0,11.8c0,3.5,0,7.7,0,12.1c-2.5,17.6,1.5,34.6-1.1,53.1"/>
		<line class="st14" x1="599.2" y1="108.1" x2="608.8" y2="108"/>
		<path class="st16" d="M759.4,151.4c-5.1,0-10.4-0.4-16.3-1.2c-2.8-0.3-5.5-0.7-8.2-1l-1.5-0.2c-9-1.1-17.1-2-25.3-2
			c-1.4,0-2.9,0-4.2,0.1c-3.4,0.1-6.9,0.1-10.2,0.2c-10.9,0.3-20.9,0.9-30.6,1.9c-3.5,0.2-7,0.5-10.6,0.7
			c-8.3,0.5-17.2,1.1-26.1,1.1h0c-14.1,0-25.8-1.3-36.6-4.2c-3.1-10.2-3.6-19.6-1.3-28.1l0-0.1c0.5-3.2,1.1-6.5,1.7-9.6
			c1.2-6.3,2.5-12.9,2.8-19.4c0.1-5.7-0.6-10.9-2.3-15.7c1.1,0,2.3-0.1,3.4-0.1c8.9,0,17.4,1.4,26.3,3c4.6,0.8,9.4,1.6,14.4,2.2
			l0.1,0h0.1c5.9,0,11,0,17.2,0.2c7.2,0.2,14.4,0.3,22.1,0.3c11.3,0,23.5-0.2,37.4-0.6c2.8-0.1,5.7-0.2,8.6-0.3
			c3.1-0.4,6.3-0.7,9.9-0.9l0.1,0l0.1,0c3.3-0.6,6.9-0.8,11.2-0.8c3.3,0,6.6,0.2,9.9,0.3c3.3,0.2,6.6,0.3,10,0.3
			c5.8,0,10.6-0.5,14.9-1.6c-0.8,3-0.6,6.1-0.4,9.2c0.1,1.3,0.1,2.6,0.1,3.9l0,0.1c0.7,6.3,1.8,12.4,2.8,18.3
			c2,11.2,3.8,21.7,3.2,33c-0.3,3-0.8,5.8-1.5,8.6C773.5,150.6,766.6,151.4,759.4,151.4z"/>
		<line class="st14" x1="599.7" y1="135.3" x2="609.1" y2="135.4"/>
		<ellipse class="st17" cx="684" cy="114.5" rx="73" ry="27.5"/>
		<g>
			<g>
				<path class="st18" d="M586.7,80.9"/>
			</g>
		</g>
	</g>
	<text transform="matrix(1 0 0 1 637 109.5)"><tspan x="0" y="0" class="st19 st20 st11">T-Shirts</tspan><tspan x="0" y="21.6" class="st10 st11 st21">	</tspan><tspan x="36" y="21.6" class="st22 st23 st11">by Alex</tspan></text>
</g>
<g>
	<path class="st12" d="M1069-1c-41.9,45.9-196.8,80-381.5,80S347.9,44.9,306-1H1069z"/>
</g>
<g>
	<path class="st8" d="M1038.3-1C1015,20,983,27,953.7,35.8c-3.3,0.8-6.7,1.5-10.1,2.2c-6.7,1.4-13.4,2.6-20.1,3.7
		c-3.5,0.7-6.9,1.3-10.4,2c-6.9,1.3-13.9,2.6-20.9,4.1c-2.3,0.3-4.6,0.6-6.9,0.9c-6.9,0.9-13.9,1.9-20.9,2.9
		c-3.1,0.4-6.2,0.9-9.3,1.3C839,55,822,57,805.8,58.1c-3.2,0.3-6.4,0.5-9.7,0.8c-35.8,2.7-73.9,4.2-113.6,4.2
		c-57.2,0-111.4-3-159.7-8.5c-4-0.5-8-0.9-11.9-1.4c-2.5,0-4.9-0.2-7.4-0.4C490,51,477,47,463.5,45.6c-2.7-0.5-5.4-0.9-8.1-1.3
		c-8.1-1.3-16.1-2.7-24.3-4.1c-3.1-0.6-6.3-1.2-9.4-1.8c-6.3-1.3-12.5-2.8-18.8-4.6c-3.6-1-7.3-2.1-10.9-3.3
		c-18-5.8-35.5-13.2-52-21.8c-2.9-1.7-5.9-3.5-8.7-5.4c-1.8-1.4-3.6-2.8-5.4-4.3c3,0,6-0.1,9.1-0.1c16.6-1.6,33.3-2.2,49.9-2.3
		c3.3,0,6.7,0,10,0c3.3-0.2,6.5-0.4,9.7-0.5c3.2-0.1,6.5-0.2,9.7-0.3c3.1-0.1,6.3-0.1,9.4-0.1c3.1,0,6.3,0,9.5,0
		C470-4,506-2,542.7-4.2c2.3,0,4.7,0,7,0c4.7,0,9.3,0.1,13.9,0.2c3.5,0,6.9,0,10.4,0.1c11.5,0.2,23,0.5,34.5,0.7
		c3.8,0.1,7.7,0.1,11.6,0.2c3.6-0.1,7.2-0.2,10.8-0.2c3.6,0,7.2-0.1,10.9-0.1c9.8,0.1,19.5,0.2,29.2,0.5c3.2,0.1,6.5,0.1,9.7,0.2
		c3.6,0.1,7.3,0.1,10.9,0.1c3.6,0,7.3,0,10.9,0c10.6-0.6,21.2-0.9,31.7-1c3.5,0,7,0,10.5,0c5.7-0.1,11.4-0.1,17.1,0
		c2.8,0,5.7,0.1,8.5,0.2c32,1.2,63.6-0.3,96-0.3c3.6,0,7.2,0,10.8,0.1c9.8,0.5,19.7,0.6,29.5,0.6c3.3,0,6.6,0,9.9,0
		c6.9-0.2,13.7-0.3,20.5-0.3c3.4,0,6.8,0,10.3,0C977-3,1007-2,1036-1C1037.5-1,1038.3-1,1038.3-1z"/>
</g>
</svg>
