<?xml version="1.0" encoding="utf-8"?>
<!-- Generator: Adobe Illustrator 21.1.0, SVG Export Plug-In . SVG Version: 6.00 Build 0)  -->
<svg version="1.1" id="Слой_1" xmlns="http://www.w3.org/2000/svg" xmlns:xlink="http://www.w3.org/1999/xlink" x="0px" y="0px"
	 viewBox="0 0 1366 768" style="enable-background:new 0 0 1366 768;" xml:space="preserve">
<style type="text/css">
	.st0{fill:#629B18;stroke:#000000;stroke-miterlimit:10;}
	.st1{fill:#FFEB31;stroke:#000000;stroke-miterlimit:10;}
	.st2{fill:#FFAB03;stroke:#000000;stroke-miterlimit:10;}
	.st3{fill:none;stroke:#000000;stroke-miterlimit:10;}
	.st4{fill:#B2B2B2;stroke:#000000;stroke-miterlimit:10;}
	.st5{fill:#00FFF8;stroke:#000000;stroke-miterlimit:10;}
</style>
<g id="Слой_1__x28_копия_x29_">
	<path class="st0" d="M511.8,312.9c8-20.8,14.2-36.1,16.5-41.3c1.7-3.9,3.4-7.2,3.4-7.2c1.2-2.4,2.4-4.7,3.7-7.1
		c1.4-2.5,2.7-4.9,4.1-7.3c1.4-2.4,2.9-4.9,4.4-7.3c1.3-2,2-2.7,3-3.7c1.2-1.1,2.6-2.2,14.3-9.4c7.4-4.6,11.1-6.8,12-7.3
		c4.3-2,5.7-2,22.3-6.4c6.1-1.6,9.1-2.4,10.5-3c5.9-2.4,7.5-4.5,15-7.5c2.9-1.2,5.2-1.9,7-2.5c2.5-0.3,6-0.5,10.1-0.8
		c5-0.2,8.8-0.3,11.9-0.3c6.3,0,7.4,0.2,16,0.3c2.2,0,4.2,0,6.7,0c7-0.1,12.2-0.4,14.7-0.5c21.5-1.1,21.3,0.8,29.2-0.8
		c2.1-0.4,8.5-1.8,17-1c7.1,0.8,12.7,2.4,16.6,3.8c4.2,1.5,7.9,3.2,8.3,3.3c4.1,1.9,4.8,2.6,9.6,4.8c2.3,1,4.4,2,7.3,3
		c0.4,0.1,1.4,0.5,6.4,1.9c3.2,0.9,5.5,1.6,5.8,1.7c9.3,2.6,20.9,10.3,22,11c1.5,0.9,3.1,2,4.7,3.2c6.7,8.7,17.5,23.1,21.2,31.5
		c0.2,0.4,2.1,4.7,4.5,10.3c1,2.4,2.1,4.9,3.5,8.1c0,0,4.8,11.4,8.5,21.2c0.5,1.3,0.5,1.4,0.9,2.5c0.9,2.2,1.1,2.4,1,2.8
		c-0.4,1.4-5.9,0.4-11.6,0c-3.8-0.3-7.7,0-11.5,0c0,0-8.7,0-19.3,0c-5.7,0-11.4,0-17,0c-2.3,0-4.7,0-7,0c-0.6,0-1.3,0.1-1.9,0
		c-0.4-0.1-0.7-0.2-0.9,0c-0.3,0.3-0.2,0.9-0.1,1.2c0.3,1.4,0,2.8,0.2,4.2c0.2,1.4-0.1,5.9-0.7,12c-0.3,3-0.7,6.5-0.9,10.1
		c0.2,3.1,0.3,6.1,0.4,9.2c0.1,3.1,0.1,6.1,0.1,9.2c-0.4,17.2-0.3,34-0.2,50.9c0,3.4,0,6.7,0.1,10.1c0.3,27.5,0.4,54.1,1,81.2
		c0,2,0.2,5.4,0.3,10.2c0.1,7.8-0.3,8.6-0.4,19.6c-0.1,5.1-0.1,11.4-0.1,14.8c0,4.9,0.1,4.5,0,5.5c-0.1,1.5-0.2,2,0,2.8
		c0.1,0.4,0.3,1.2,0.3,2.3c0,0.3,0,0.4-0.1,0.6c-0.2,1.8-0.1,3.7-0.1,3.9c0,0.8,0.1,0.5,0.3,2.9c0.1,1.2,0.1,1.6,0,2.1
		c-0.1,0.6-0.3,0.8-0.4,1.5c0,0.7,0.1,0.8,0,1.1c-0.3,0.8-1.9,0.9-2.3,0.9c-2.2,0.1-22.1,0.1-49.2-0.1c-3.1,0.2-7.3,0.4-12.4,0.6
		c-12.8,0.6-26.6,1-39.8,0.9c-5.7,0-13.7-0.2-22.2-0.5c-2.8-0.1-5.7-0.2-8.6-0.3C627,566,605,565,582,566c0-15,0-31-0.1-45.7
		c0-4.6,0-7.5,0-10.3c0-8.9,0.1-8.8,0.1-16.9c0-5-0.1-4.3-0.1-10.9c0-3.7,0-4.4,0-14.2c0,0,0-6.5,0-13.1c0-3.8,0-7.7,0-11.5
		c0-3.1,0-22.5,0-22.5c0-31.6,0-30.5,0-32.8c0,0-0.2-10.5-0.1-15.3c0-1.1,0-1.8,0.1-3.3c0-1,0-1.4,0-2c0-6.8,0-13.7,0-20.6
		c0-7.2,0-14.3,0.1-21.4c-10,0-20.1,0-30.1,0c-12.2,0-24.3,0-36.5,0c-0.9-0.1-1.6,0-2.1,0c-0.2,0-0.6,0.1-0.9-0.1
		c-0.2-0.2-0.3-0.5-0.3-0.6c-0.2-1-0.3-0.6-0.7-2.1c-0.1-0.4-0.3-1.1-0.4-2.1c-0.1-1,0-0.9-0.1-2.8c0-0.8,0-1.2,0-1.3
		C511.1,315.6,511.2,314.4,511.8,312.9z"/>
</g>
<g id="Слой_8">
	<path class="st1" d="M628.5,203.3c-0.4,0.1-0.8,0.3-1,0.7c0,0,0,0.1-0.1,0.1c0,0-0.1,0.2-0.1,0.3c-0.1,1.4,10.8,3.3,10.8,3.3
		c8.2,1.4,12.3,2.1,12.4,2.1c5.7,0.7,10.4,0.8,19.6,0.9c7.4,0.1,11.5,0.2,17.5-0.1c5.7-0.3,10.3-0.7,16-1.3
		c5.7-0.5,10.2-1.1,11.6-1.3c8.6-1,8-1.2,12.5-1.6c3-0.3,6.1-0.9,9.1-1.2c0.2,0,0.6-0.1,1.4-0.3c0.9-0.2,1.2-0.3,1.5-0.5
		c0.1-0.1,0.4-0.3,0.5-0.7s0-0.5,0-1.1c0-0.9,0.3-1.1,0.1-1.4c-0.1-0.2-0.3-0.2-1-0.3c-0.6-0.1-0.6-0.2-1-0.3
		c-0.9-0.2-1.9-0.3-2.8-0.4c-1.6-0.1-1.1-0.1-2.7-0.3c-2-0.2-3.7-0.3-4.1-0.3c-2.9-0.1-5.4,0.3-7.8,0.6c-1.9,0.3-4.5,0.4-9.7,0.8
		c-5.6,0.4-6,0-14.3,0.2c-6.5,0.1-7,0.4-19.4,0.8c-2.9,0.1-4.4,0.1-6.1,0.1c-3.2,0-6.1,0-11.9-0.1c-3.7-0.1-6.3-0.1-9.5-0.2
		c-1.4,0-2.8,0-4.7,0c-1.5,0-1.8,0.1-3.1,0.1c-1.5,0-1.8,0-4.3,0c-3.4,0-4.1,0-4.8,0.1c-0.1,0-1,0.2-2.8,0.6
		C630.2,202.7,629.7,202.8,628.5,203.3z"/>
</g>
<g id="Слой_7">
	<path class="st2" d="M582,556.7c33.8-1,58.7-1.4,66.2-1.4c4.7,0,8.8,0.1,8.8,0.1c3.2,0.1,6.9,0.2,11.8,0.3
		c21.2,0.5,20.4,0.8,27.9,0.7c5.4,0,12.3-0.4,26-1.2c3-0.2,5.5-0.3,7.7-0.5c1.5-0.1,2.5-0.2,2.8-0.2c5.8-0.4,14.8-0.6,23.7-0.9
		c7.2-0.3,11.8-0.4,15.7-0.7c2.6-0.2,5.3,0,7.9-0.5c0.1,0,1.8-0.3,3,0c0.1,0,1.1,0.3,1.1,0.3l0,0c-0.1,0.7-0.1,1.9,0,3.4
		c0.1,2.1,0.4,3,0.4,5c0,2,0,3-0.7,3.7c-0.5,0.5-1,0.5-4.1,0.6c0,0-6.5,0.2-8.8,0c-0.2,0,0.9,0.1-32.2-0.1c-1.9,0-7.9,0-9.8-0.1
		c-1.6,0.1-4,0.2-6.9,0.3c-9.3,0.5-19.2,0.8-30.3,0.9c-2.2,0-8,0-19.5,0c-6.1,0-9.5,0-11.7,0c-2.1,0-3.6,0-3.9,0
		c-4.6-0.1-24.8-0.2-75.1-0.3c-0.1-1.4-0.2-2.9-0.2-4.5c0-1.1,0-2.2,0.1-3.2C582,557.8,582,557.2,582,556.7z"/>
</g>
<g id="Слой_3">
	<path class="st3" d="M629.9,202.8c-0.7,0.2-1,0.3-1.4,0.5c-0.3,0.2-0.9,0.6-1.9,2.4c-0.5,0.9-0.8,1.4-0.9,1.9
		c-0.2,0.6-0.4,1.6,0.1,4.3c0.1,0.4,0.3,1.9,1.1,4.3c0.5,1.5,0.9,2.5,1.7,4.6c0.8,1.9,1.1,2.8,1.6,3.8c1,2,2,3.5,2.4,4
		c0.6,0.9,1.4,1.8,2.9,3.5c0.5,0.5,0.7,0.8,0.9,1c0.3,0.3,1,1,2.6,2.3c1.2,1,2.2,1.6,2.5,1.9c1.3,0.9,2.9,2,5.2,3.1
		c2,0.9,3.5,1.4,5.4,1.9c0.6,0.2,2.4,0.7,4.8,1.2c1.9,0.4,3.4,0.6,6.4,0.9c4.1,0.5,7.1,0.8,8,0.8c3,0.3,4.5,0.4,6.4,0.4
		c1.4,0,2.8,0,5.5-0.1c2.3-0.1,3.5-0.1,4.4-0.2c1.5-0.1,1.7-0.2,4.9-0.6c0.8-0.1,1.2-0.1,1.8-0.2c1-0.2,1.5-0.3,3.2-0.6
		s1.4-0.3,2.2-0.4c1.6-0.3,2.8-0.7,3.7-0.9c0.4-0.1,1.1-0.3,2.6-0.8c1.6-0.5,2.4-0.7,2.8-0.9c2.3-0.7,3.4-1.1,4.8-1.7
		c0.4-0.2,1.6-0.7,3.2-1.5c0.9-0.5,1.9-1,3.2-1.8c0.6-0.4,2-1.4,3.7-2.8c0.9-0.8,1.6-1.5,3-3.1c1.4-1.5,2.1-2.2,3-3.3
		c0.8-0.9,1.5-2,3.1-4.2c1.5-2.1,2.4-3.4,3.4-5.3c0.9-1.5,1.5-2.6,2.2-4.1c0.6-1.4,1.3-3,1.6-5.1c0.4-2.1-0.1-1.9,0.4-4
		c0.2-1,0.4-1.8,0-2.4c-0.4-0.6-1.2-0.8-1.7-0.8c-4.6-0.7-6.7-0.7-6.7-0.7c-4.8-0.1-5.7,0-6.4,0c-1.4,0.1-2.7,0.2-3.9,0.3
		c-1,0.1-1.5,0.2-4.4,0.5c-4.4,0.5-4.6,0.5-5,0.6c-1.4,0.1-2.9,0.2-4.8,0.1c-0.8,0-1.3-0.1-2.3-0.1c-1.2,0-1.8,0-3.1,0.1
		c-1.5,0-2.5,0-3.4,0c-3.9,0-14.9,0.3-24.7,0.6c-4.6,0.1-6.5,0.2-10.3,0.3c-5.7,0.1-5.9-0.1-14.1,0c-3.6,0-5.5,0.1-8.7,0
		c-0.3,0-2.3-0.1-4.9-0.1c-0.7,0-1.5,0.1-3,0.1C631.6,202.5,630.8,202.6,629.9,202.8z"/>
</g>
<g id="Слой_4">
	<path class="st1" d="M620.9,208.7c-0.8,1.6-0.7,3.1-0.5,5.4c0.1,1.6,0.4,2.8,0.7,4.3s0.7,3.4,1.6,5.8c1.1,3.1,2.4,5.3,3.3,6.9
		c0.6,1,1.1,2,2,3.2c0.7,1,1.9,2.7,3.9,4.6c0.6,0.6,2,1.9,4.1,3.2c0.4,0.2,1.9,1.2,4.5,2.4c3.1,1.4,5.7,2,8.4,2.7
		c2.9,0.7,5.2,1.1,6.9,1.4c2.2,0.4,3.9,0.6,5.9,0.8c2.3,0.3,4,0.5,6.4,0.7c3.4,0.3,6,0.3,7.7,0.3c0.6,0,3.1,0,6.4-0.1
		c0.3,0,2.6-0.1,5.2-0.3c8.9-0.6,17-2,19.3-2.4c5-0.9,7.1-1.5,8.5-1.9c4.4-1.4,6.8-2.8,7.8-3.3c1.6-0.9,2.7-1.8,3.9-2.7
		c0,0,2.5-1.9,5.1-4.5c0.9-0.9,1.7-1.7,1.8-1.8c0.3-0.3,0.8-0.8,1.3-1.5c1.2-1.4,2-2.6,2.4-3.1c0.8-1.1,1.3-2,1.7-2.7
		c0.7-1.1,0.7-1.3,1.9-3.4c0.9-1.7,1-1.7,1.7-3c0.8-1.5,1.2-2.3,1.7-3.3c0.5-1.1,0.4-1,1.3-3.4c0.5-1.3,1.1-2.8,1.6-4.7
		c0.1-0.5,0.3-1.1,0.2-1.9c0-0.2-0.2-1.1-0.8-2.1c-0.3-0.4-0.7-0.9-2.8-2c-1.8-1-2.8-1.4-3.2-1.2c-0.7,0.4-0.2,1.8-0.3,4.3
		c-0.1,2-0.5,3.4-1.1,5.3c-0.6,2.1-1.4,3.6-3,6.4c-1.1,2-2.3,4.2-4.3,6.9c-1.4,2-3,4.2-5.6,6.8c-2.3,2.3-4.4,3.8-5.4,4.4
		c-0.4,0.3-1.4,1-2.8,1.8c-0.4,0.2-1.9,1.1-3.9,2c-3.4,1.6-6.5,2.4-8.6,3c-1.4,0.4-4.7,1.3-9.2,2c-1,0.2-5.2,0.8-10.9,1.1
		c-3,0.1-5.4,0.1-6.8,0.1c-2.3,0-4.1-0.2-7.8-0.4c-2.6-0.2-4.1-0.2-6.1-0.4c-1.9-0.2-3.4-0.3-5.3-0.6c-2.1-0.3-5-0.8-8.6-1.9
		c-1.7-0.5-3.6-1.1-6-2.3c-3.4-1.7-5.7-3.6-6.5-4.2c-4.7-4-7-8.4-8-10.3c0,0-1.6-3.1-3.1-7.8c-0.3-1-0.7-2.1-0.7-2.1
		c-0.2-0.6-0.3-1.1-0.5-1.8s-0.3-1.4-0.4-2.2c0-0.2-0.2-1.3-0.1-2.2c0-0.4,0.1-0.8,0.1-0.8c0-0.1,0.1-0.3,0.2-0.7
		c0.1-0.3,0.2-0.8,0.5-1.3c0.1-0.1,0.3-0.4,0.7-0.9c0.1-0.1,0.2-0.3,0.4-0.6s0.3-0.4,0.3-0.5c0.4-0.6,2.8-1.3,2.8-1.3
		c0,0.1-3.9,0.3-7.4,3.2C622.4,206.6,621.5,207.4,620.9,208.7z"/>
</g>
<g id="Слой_5">
	<path class="st4" d="M511.3,315.4c0,0-0.2,1-0.3,2c-0.4,4.5,1.3,8.1,1.5,8.2c0,0,0,0,1.1,0c0.6,0,1.1,0,1.4,0c4,0,8,0,12.1,0
		c3.4,0,6.9,0,10.3,0c4.5,0,9,0,13.5,0c2.5,0,5.1,0,7.6,0c1.6,0,3.2,0,4.8,0c1.6,0,3.2,0,4.8,0c1.2,0,2.5,0,3.7,0c1,0,2.1,0,3.1,0
		c0.7,0,1.4,0,2.1,0c0.5,0,1,0,1.5,0c0.7,0,1,0,1.3,0c0,0,0.2,0,0.4,0c0.2,0,0.4,0,0.5,0c0.3,0,0.5,0,0.8,0c0.1,0,0.2,0,0.4,0
		c0-0.3,0-0.5-0.1-0.8c-0.3-4.4-0.3-8.8,0-12.9c-0.9,0.2-1.9,0.5-2.8,0.7c-0.4,0-0.9,0.1-1.3,0.1H576c-1.5,0-3.9-0.1-6.9-0.2
		c-12-0.3-13.4-0.3-22.4-0.5c-4-0.1-8-0.2-12-0.3c-1.3,0-3.7-0.1-7-0.1c-2,0-3.7,0-4.8,0c-0.4-0.1-1.1-0.2-1.8-0.2
		c-0.7,0-0.9,0.1-1.7,0.1c-0.6,0-0.5,0-2.9,0c0,0-0.7,0-2.2,0c-0.3,0-0.5,0-0.8,0c-0.3,0-0.5,0-0.8,0c-0.1,0-0.2,0-0.2,0
		c-0.1,0-0.2,0-0.2,0c0.1-0.2-0.1,0.4-0.1,0.4c-0.1,0.2-0.2,0.5-0.4,1C511.7,313.5,511.5,314.4,511.3,315.4z"/>
</g>
<g id="Слой_6">
	<path class="st5" d="M575.3,221.5c-0.1,0-0.2,0-0.5,0.2c-0.5,0.3-0.7,0.3-1,0.4c-3.4,1.6-6.2,3.6-6.2,3.6c-6.5,4.6-6,4.4-7.8,5.5
		c-2.7,1.5-2.8,1.2-5.8,3c-2.6,1.8-5,3.9-7.2,6.1c-2.2,2.2-4.2,4.6-6,7c-1.1,2.6-2.5,5.4-4.1,8.4c-1.6,3-3.4,6.1-5.2,9.3
		c-1,2.3-6.6,15-10.9,25.6c-2.2,5.5-3.4,8.2-4.2,10.5c0,0-1.5,3.7-2.8,7.2c-0.2,0.5-0.4,1-0.4,1c0,0.1-0.1,0.3-0.3,0.7
		c-0.1,0.3-0.2,0.5-0.2,0.5c0,0.1-0.1,0.2-0.1,0.3c0,0-0.1,0.2-0.1,0.2c0,0,0,0.1-0.1,0.2c-0.1,0.2-0.1,0.2-0.1,0.2
		c-0.1,0.1-0.1,0.2-0.1,0.2c0,0,0,0,0,0c0,0,0.1,0,0.3,0c0.2,0,0.2,0,0.4,0c0.1,0,0.2,0,0.4,0c1,0,2,0,3,0c0.4,0,8,0,8,0
		c3,0,15.8,0.2,52,1.1c0.9,0.1,2,0,3.3-0.2c0.8-0.2,1.4-0.4,2-0.6c-0.5-3.3-7.5-47.4-7.4-50.7c0.1-3.2,0.1-3.3,0.1-3.3
		c0.1-2.1,0.1-2.2,0-3.3c0-2.4-0.1-3.1-0.7-10.5c-0.5-6.4-0.5-6.9-0.3-7.8c0.4-2.8,1-3.4,1.5-7.3c0.5-3.8-0.1-3.1,0.2-5.7
		C575.5,222.9,575.7,221.6,575.3,221.5z"/>
</g>
<path class="st5" d="M512.5,311.5"/>
<g id="Слой_5_1_">
	<path class="st4" d="M854.7,310.8c-0.2-0.5-0.3-0.8-0.4-1c0,0-0.2-0.6-0.1-0.4c-0.1,0-0.2,0-0.2,0c-0.1,0-0.2,0-0.2,0
		c-0.3,0-0.5,0-0.8,0c-0.3,0-0.5,0-0.8,0c-1.4,0-2.2,0-2.2,0c-2.4,0-2.3,0-2.9,0c-0.8-0.1-1-0.1-1.7-0.1c-0.8,0-1.4,0.1-1.8,0.2
		c-1.1,0-2.8,0-4.8,0c-3.3,0-5.8,0.1-7,0.1c-4,0.1-8,0.2-12,0.3c-9,0.2-10.3,0.2-22.4,0.5c-3,0.1-5.4,0.1-6.9,0.2h-1.8
		c-0.4,0-0.9-0.1-1.3-0.1c-0.9-0.2-1.9-0.5-2.8-0.7c0.3,4.1,0.3,8.5,0,12.9c0,0.3,0,0.5-0.1,0.8c0.1,0,0.2,0,0.4,0
		c0.3,0,0.5,0,0.8,0c0.1,0,0.3,0,0.5,0c0.2,0,0.3,0,0.4,0c0.2,0,0.6,0,1.3,0c0.5,0,1,0,1.5,0c0.7,0,1.4,0,2.1,0c1,0,2.1,0,3.1,0
		c1.2,0,2.5,0,3.7,0c1.6,0,3.2,0,4.8,0c1.6,0,3.2,0,4.8,0c2.5,0,5.1,0,7.6,0c4.5,0,9,0,13.5,0c3.4,0,6.9,0,10.3,0c4,0,8,0,12.1,0
		c0.3,0,0.8,0,1.4,0c1,0,1,0,1.1,0c0.2-0.1,1.9-3.6,1.5-8.2c-0.1-0.9-0.2-2-0.3-2C855.1,312.3,854.9,311.4,854.7,310.8z"/>
</g>
<g id="Слой_6_1_">
	<path class="st5" d="M791.2,221.1c0.3,2.6-0.3,1.9,0.2,5.7c0.5,3.9,1.1,4.5,1.5,7.3c0.2,0.9,0.2,1.4-0.3,7.8
		c-0.6,7.4-0.7,8.1-0.7,10.5c-0.1,1.1,0,1.2,0,3.3c0,0,0,0.1,0.1,3.3c0.1,3.3-6.9,47.4-7.4,50.7c0.6,0.2,1.3,0.4,2,0.6
		c1.3,0.3,2.4,0.3,3.3,0.2c36.2-0.9,49-1.1,52-1.1c1.2-0.1,2.1-0.1,2.8-0.1c0.4,0,0.7,0,1.4,0c0.6,0,1.1,0,1.8,0c1.1,0,1.2,0,2-0.1
		c0.9,0,1.3,0,1.6,0c0.5,0,1,0.1,1.5,0.1c0,0,0.2,0,0.4,0c0,0,0,0,0,0c0.2,0,0.2,0,0.4,0c0.2,0,0.3,0,0.3,0c0,0,0,0,0,0
		c0,0,0-0.1-0.1-0.2c0,0,0,0-0.1-0.2c0,0,0-0.1-0.1-0.2c0,0-0.1-0.2-0.1-0.2c0-0.1-0.1-0.3-0.1-0.3c0-0.1-0.1-0.3-0.2-0.5
		c-0.1-0.4-0.2-0.6-0.3-0.7c0,0-0.2-0.5-0.4-1c-1.3-3.4-2.8-7.2-2.8-7.2c-0.8-2.3-2-5-4.2-10.5c-4.4-10.6-9.9-23.3-10.9-25.6
		c-1.4-2.9-3.2-6-5.2-9.3c-1.7-2.7-3.5-5.2-5.2-7.4c-2.2-2.8-3.9-5.1-5-6.8c-1.1-1.7-2.5-3.2-3.6-4.9c-0.7-0.9-1.3-1.9-2.3-2.6
		c-0.3-0.2-0.9-0.5-1.8-1.2c-0.4-0.3-0.6-0.4-1-0.7c-0.4-0.3-0.5-0.3-1.3-0.8c-0.5-0.3-0.4-0.3-0.9-0.6c-0.1,0-0.4-0.3-1-0.6
		c-0.1-0.1-0.4-0.2-0.6-0.4c0,0-0.6-0.4-1.1-0.7c-1.2-0.7-2.4-1.4-2.4-1.4c-1.6-0.9-3-1.7-4-2.2c-0.7-0.4-1.4-0.7-2.2-1.1
		c-1.6-0.8-3.1-1.5-4.6-2.1c-0.3-0.1-0.5-0.1-1-0.4c-0.3-0.2-0.4-0.2-0.5-0.2C790.8,219.5,791,220.8,791.2,221.1z"/>
</g>
<path class="st5" d="M853.8,308.9"/>
</svg>
