<svg v-if="!tshirtOptions.tshirtSex" v-show="!tshirtOptions.tshirtSex" class="tshirt-pattern" xmlns="http://www.w3.org/2000/svg" style="width: 300px; display:none" viewBox="0 0 345.56 368.06">
  <g>
    <path v-bind:style="{ fill: tshirtOptions.colors.base.hex }" d="M0,75c0-1.74,1-2.69,3-5.47,1.3-1.74,2.52-3.56,3.65-5.38,5.47-9.12,9.81-17.8,15.89-26.74a13.64,13.64,0,0,1,2.6-3.21c1-1,2.26-1.91,12.41-8.16,6.42-4,9.64-5.9,10.42-6.34C51.78,18,53,18,67.4,14.19a93.4,93.4,0,0,0,9.12-2.6c5.12-2.08,6.51-3.91,13-6.51,2.52-1,4.51-1.65,6.08-2.17,2.17-.26,5.21-.43,8.77-.69,4.34-.17,7.64-.26,10.33-.26,5.47,0,6.42.17,13.89.26h5.82c6.08-.09,10.59-.35,12.76-.43,18.67-1,18.49.69,25.35-.69A49.5,49.5,0,0,1,187.3.21a63.71,63.71,0,0,1,14.41,3.3c3.65,1.3,6.86,2.78,7.21,2.86,3.56,1.65,4.17,2.26,8.33,4.17,2,.87,3.82,1.74,6.34,2.6.35.09,1.22.43,5.56,1.65,2.78.78,4.77,1.39,5,1.48,8.07,2.26,18.14,8.94,19.1,9.55A57.65,57.65,0,0,1,262,32.33c7.29,6.77,5.3,9.38,13.89,20.84,3.65,4.86,6.08,10.59,9.64,15.45a5.31,5.31,0,0,1,1.3,3.91c-.17,1.3-1.13,2.17-3.56,4.17-3.39,2.69-5.3,4-5.3,4-4.08,2.78-6.08,4.08-8.07,5.47-5.12,3.39-5.56,3.73-6.25,4.17a2.43,2.43,0,0,1-.69.43c-1.13.69-3.91,2.52-5.47,3.56-1.91,1.22-2.86,1.91-3.82,2.52-.78.52-1.48,1-2.86,1.91l-3.13,2.08a9,9,0,0,1-2.17,1.39c-.52.26-.69.26-1.74.69l-1.56.69c-2,.87-1.91.87-2.6,1.22a14.86,14.86,0,0,1-2.52.78,7,7,0,0,1-1.74.26,5.32,5.32,0,0,1-2.34-.35c-.52-.26-.78-.61-1.13-.43a.93.93,0,0,0-.26.43,11.57,11.57,0,0,1-.52,1.22,10.34,10.34,0,0,0-.26,2.08c-.26,1.82.26,3,.17,5.3a36.5,36.5,0,0,1-.78,4.34c-.26,1.65-.35,2.78-.52,4.69-.35,4.34-.26,5-.52,8.42-.09,1.22-.17,1.56-.78,5.82-.43,3-.78,5.9-1.22,8.86-.69,5.12-1.3,16.32-1.3,33.86,0,6.68.09,15.28.87,26.48,1,14.24,2.17,16.76,2.17,27.78,0,8.51-.69,10.07,0,16.49.78,7.21,1.91,7.81,3.91,19.1,1.13,6.42.61,5.38,2.6,17.8,1.3,8.33,1.91,12.5,2.17,13.46a49.44,49.44,0,0,1,1.13,6.16,5.34,5.34,0,0,1,0,2.08,5.53,5.53,0,0,1-.17.78,11.74,11.74,0,0,1-1.39,3.13,5.5,5.5,0,0,1-1.13,1.56,5,5,0,0,1-2.86,1,7.17,7.17,0,0,1-1.39,0c-1.56-.09-3,0-4.6,0H217c-10.59,0-45.14,3-75.7,2.78-9.9-.09-27.78-.52-41.06-1.48,0,0-8.59-.61-21.53-1.13-3-.09-5.12-.17-9.38-.26H66.1c-3.13.09-4.17.52-7.47.69-2.6.17-3.91.17-4.77-.35-1.48-1-1.74-3-1.91-5.47-.61-7.81,0-10.85,0-10.85,1.48-7.73,2-15.71,3.47-23.44,1.13-6.08,1.91-12.41,3.47-25.18.43-3.56,1.82-15.45,3-31.25,1.22-16.67,1.91-25,1.74-35.16-.17-14.59-1.65-26.13-3-37.33-.43-3.56-2.69-21.1-3.91-27.35a39.15,39.15,0,0,1-.78-4.77,45.78,45.78,0,0,1-.35-5.64c-19.1-2.6-30.39-18.23-45.93-25.26C7.5,83.21,5.77,82.08,4.29,81,1.42,79,0,77.3,0,75Z"/>
    <path v-bind:style="{ fill: tshirtOptions.colors.belt.hex }" d="M52,309c.09-.09.09-.26.26-.43.52-.52,1.48-.35,1.82-.35,1.3.17,2.6-.17,3.91,0,2.69.26,2.86-.17,8.68-.17,3,0,3,.17,6.42.17,2.69,0,3.3-.09,5.64-.09,3.65,0,4.95.17,9.72.35,2.26.09,4.43.17,8.77.17,7,.09,10.68.09,15.89.09,5,0,9.29.09,17.88.35,18.4.43,17.71.69,24.22.61,4.69,0,10.68-.35,22.57-1,15.37-.87,15.28-1.13,27.35-1.74,16.23-.87,16.76-.52,20.84-1,3.82-.43,7.81.69,11.46-.52a1.27,1.27,0,0,1,1.13,0c.35.26.35.78.35,1.3a14.28,14.28,0,0,1-.35,3.73,8.52,8.52,0,0,1-1,2.17,4.89,4.89,0,0,1-1.65,2.26,4.73,4.73,0,0,1-2.26.61q-3.13.26-4.95.26H217.25a25.55,25.55,0,0,0-3,.09A21.29,21.29,0,0,0,212,316c-2.26.09-4.08.17-4.34.17l-6.25.35c-4,.26-8,.43-12.07.61-11.63.61-23.7,1.3-38.11,1.39H134.34c-10.59,0-12-.09-13.54-.09-6.86-.17-12.59-.61-18.23-1-3.47-.26-6.95-.52-12.24-.87-.43,0-2.69-.17-5.82-.26-4.77-.26-7.21-.35-8.77-.35-8.07-.09-12.15-.17-16.41.61-1.22.17-4.25.69-5.73-.87a4.64,4.64,0,0,1-1.13-2c-.35-1.13.09-1.22-.35-2.69A2.09,2.09,0,0,1,52,309Z"/>
    <path v-bind:style="{ fill: tshirtOptions.colors.base.hex }" d="M97.18,2.82A6.23,6.23,0,0,0,96,3.25a5.16,5.16,0,0,0-1.65,2.08A6.51,6.51,0,0,0,93.54,7c-.17.52-.35,1.39.09,3.73a27.3,27.3,0,0,0,1,3.73c.43,1.3.78,2.17,1.48,4,.69,1.65,1,2.43,1.39,3.3a22.91,22.91,0,0,0,2.08,3.47,31.51,31.51,0,0,0,2.52,3c.43.43.61.69.78.87a27.18,27.18,0,0,0,2.26,2c1,.87,1.91,1.39,2.17,1.65a30.78,30.78,0,0,0,4.51,2.69,27.59,27.59,0,0,0,4.69,1.65c.52.17,2.08.61,4.17,1a47.22,47.22,0,0,0,5.56.78c3.56.43,6.16.69,6.95.69a50.72,50.72,0,0,0,5.56.35c1.22,0,2.43,0,4.77-.09,2-.09,3-.09,3.82-.17,1.3-.09,1.48-.17,4.25-.52.69-.09,1-.09,1.56-.17.87-.17,1.3-.26,2.78-.52s1.22-.26,1.91-.35c1.39-.26,2.43-.61,3.21-.78.35-.09,1-.26,2.26-.69s2.08-.61,2.43-.78a35.81,35.81,0,0,0,4.17-1.48c.35-.17,1.39-.61,2.78-1.3.78-.43,1.65-.87,2.78-1.56.52-.35,1.74-1.22,3.21-2.43a26.66,26.66,0,0,0,2.6-2.69c1.22-1.3,1.82-1.91,2.6-2.86.69-.78,1.3-1.74,2.69-3.65a36.63,36.63,0,0,0,3-4.6,35.57,35.57,0,0,0,1.91-3.56,16.65,16.65,0,0,0,1.39-4.43c.35-1.82-.09-1.65.35-3.47.17-.87.35-1.56,0-2.08a1.83,1.83,0,0,0-1.48-.69,44.13,44.13,0,0,0-5.82-.61c-4.17-.09-4.95,0-5.56,0l-3.39.26c-.87.09-1.3.17-3.82.43-3.82.43-4,.43-4.34.52a31.55,31.55,0,0,1-4.17.09c-.69,0-1.13-.09-2-.09-1,0-1.56,0-2.69.09h-3c-3.39,0-12.94.26-21.44.52-4,.09-5.64.17-8.94.26-4.95.09-5.12-.09-12.24,0-3.13,0-4.77.09-7.55,0-.26,0-2-.09-4.25-.09-.61,0-1.3.09-2.6.09A11.24,11.24,0,0,0,97.18,2.82Z"/>
    <g>
      <path v-bind:style="{ fill: tshirtOptions.colors.neck.hex }" d="M96,3.25a1.25,1.25,0,0,0-.87.61.09.09,0,0,1-.09.09.87.87,0,0,0-.09.26c-.09,1.22,9.38,2.86,9.38,2.86,7.12,1.22,10.68,1.82,10.77,1.82a144.15,144.15,0,0,0,17,.78c6.42.09,10,.17,15.19-.09,4.95-.26,8.94-.61,13.89-1.13s8.86-1,10.07-1.13c7.47-.87,6.95-1,10.85-1.39,2.6-.26,5.3-.78,7.9-1a7.59,7.59,0,0,0,1.22-.26,3.57,3.57,0,0,0,1.3-.43,1.2,1.2,0,0,0,.43-.61,3.45,3.45,0,0,0,0-1c0-.78.26-1,.09-1.22s-.26-.17-.87-.26a5.4,5.4,0,0,1-.87-.26,23.4,23.4,0,0,0-2.43-.35A21.51,21.51,0,0,1,186.52.3C184.78.12,183.3,0,183,0a40.5,40.5,0,0,0-6.77.52c-1.65.26-3.91.35-8.42.69-4.86.35-5.21,0-12.41.17-5.64.09-6.08.35-16.84.69-2.52.09-3.82.09-5.3.09-2.78,0-5.3,0-10.33-.09-3.21-.09-5.47-.09-8.25-.17h-4.08c-1.3,0-1.56.09-2.69.09h-3.73a35.15,35.15,0,0,0-4.17.09c-.09,0-.87.17-2.43.52C97.44,2.73,97,2.82,96,3.25Z"/>
      <path v-bind:style="{ fill: tshirtOptions.colors.neck.hex }" d="M89.37,7.94c-.69,1.39-.61,2.69-.43,4.69a25.76,25.76,0,0,0,.61,3.73,30.45,30.45,0,0,0,1.39,5,35.63,35.63,0,0,0,2.86,6,27.67,27.67,0,0,0,1.74,2.78,24.84,24.84,0,0,0,3.39,4,20,20,0,0,0,3.56,2.78A43.06,43.06,0,0,0,106.39,39a41.39,41.39,0,0,0,7.29,2.34c2.52.61,4.51,1,6,1.22,1.91.35,3.39.52,5.12.69,2,.26,3.47.43,5.56.61,3,.26,5.21.26,6.68.26.52,0,2.69,0,5.56-.09.26,0,2.26-.09,4.51-.26a166.39,166.39,0,0,0,16.76-2.08,66.7,66.7,0,0,0,7.38-1.65A38,38,0,0,0,178,37.19a28.56,28.56,0,0,0,3.39-2.34,48.86,48.86,0,0,0,4.43-3.91l1.56-1.56a10,10,0,0,0,1.13-1.3c1-1.22,1.74-2.26,2.08-2.69A23.13,23.13,0,0,0,192.07,23c.61-1,.61-1.13,1.65-3,.78-1.48.87-1.48,1.48-2.6.69-1.3,1-2,1.48-2.86s.35-.87,1.13-3a36.65,36.65,0,0,0,1.39-4.08,4.57,4.57,0,0,0,.17-1.65,4.81,4.81,0,0,0-.69-1.82,6.1,6.1,0,0,0-2.43-1.74c-1.56-.87-2.43-1.22-2.78-1-.61.35-.17,1.56-.26,3.73a16.71,16.71,0,0,1-1,4.6,23.57,23.57,0,0,1-2.6,5.56,48.19,48.19,0,0,1-3.73,6,40.86,40.86,0,0,1-4.86,5.9,26.94,26.94,0,0,1-4.69,3.82,25,25,0,0,1-2.43,1.56c-.35.17-1.65,1-3.39,1.74a45.85,45.85,0,0,1-7.47,2.6,66,66,0,0,1-8,1.74,83.74,83.74,0,0,1-9.46,1c-2.6.09-4.69.09-5.9.09-2,0-3.56-.17-6.77-.35-2.26-.17-3.56-.17-5.3-.35s-3-.26-4.6-.52a48.18,48.18,0,0,1-7.47-1.65,29.38,29.38,0,0,1-5.21-2,33.08,33.08,0,0,1-5.64-3.65,28.88,28.88,0,0,1-6.95-8.94A48.18,48.18,0,0,1,95.1,15.4c-.26-.87-.61-1.82-.61-1.82-.17-.52-.26-1-.43-1.56a12.46,12.46,0,0,1-.35-1.91,10.08,10.08,0,0,1-.09-1.91,3.29,3.29,0,0,1,.09-.69c0-.09.09-.26.17-.61a4.81,4.81,0,0,1,.43-1.13c.09-.09.26-.35.61-.78a5.15,5.15,0,0,0,.35-.52c.17-.26.26-.35.26-.43C95.88,3.51,98,2.9,98,2.9a13.62,13.62,0,0,0-6.42,2.78A4.59,4.59,0,0,0,89.37,7.94Z"/>
    </g>
    <g>
      <path v-bind:style="{ fill: tshirtOptions.colors.sleevesSeamL.hex }" d="M0,75.48a6.33,6.33,0,0,0,.78,2.26,4.82,4.82,0,0,0,1.82,1.91l3.91,2.6c.87.61,1.74,1.22,2.6,1.74l14.24,9.55,8.94,5.82c3.3,2.26,6.68,4.51,10,6.86,2.08.87,4.25,1.65,6.34,2.52a10.13,10.13,0,0,0,4.08.61,10.07,10.07,0,0,0,1.3-.26,5.72,5.72,0,0,0,.78-.17c.35,0,.61,0,.69-.09V97.44l-2.43.69H50.39l-3.47-1.3c-13-9.12-26-18.14-39.07-27.26-1-.78-2.08-1.48-3.21-2.26-.43.52-1.22,1.65-2.08,2.86-.09.17-.35.52-1,1.39a4.23,4.23,0,0,1-.69,1,7.86,7.86,0,0,0-.52,1c-.17.35-.17.35-.26.43A4.17,4.17,0,0,0,0,75.48Z"/>
      <path v-bind:style="{ fill: tshirtOptions.colors.sleevesSeamR.hex }" d="M287.14,72a6.33,6.33,0,0,1-.78,2.26,4.82,4.82,0,0,1-1.82,1.91l-3.91,2.6c-.87.61-1.74,1.22-2.6,1.74l-14.24,9.55-8.94,5.82c-3.3,2.26-6.68,4.51-10,6.86-2.08.87-4.25,1.65-6.34,2.52a8,8,0,0,1-5.38.35,5.72,5.72,0,0,1-.78-.17c-.35,0-.61,0-.69-.09V94l2.43.69h2.6l3.47-1.3c13-9.12,26-18.14,39.07-27.26,1-.78,2.08-1.48,3.21-2.26.43.52,1.22,1.65,2.08,2.86.09.17.35.52,1,1.39a4.23,4.23,0,0,0,.69,1,7.86,7.86,0,0,1,.52,1c.17.35.17.35.26.43A2.25,2.25,0,0,1,287.14,72Z"/>
    </g>
    <g>
      <path v-bind:style="{ fill: tshirtOptions.colors.sleevesR.hex }" d="M237,17.83c-.17.09-.17.35-.17.43a40.68,40.68,0,0,0,.09,10.5c.09.52,0,3,0,8-.09,7.12-.43,12.76-.61,15.37-.78,11.81-1.56,11.29-1.56,18.67,0,3.21.09,5.73-.26,10.16-.26,2.43-.52,5.21-1.13,8.51h0a22.13,22.13,0,0,1-1.48,4.17.57.57,0,0,0-.09.52c.09.26.52.35,1.3.61h0c.26,0,.78.09,1.22.09h1.13a13.5,13.5,0,0,0,1.74-.09A6.77,6.77,0,0,0,239.3,94c.61-.35.61-.43,1.56-1,1.13-.69,1.39-.78,2.43-1.39a21.64,21.64,0,0,0,2.08-1.48s.61-.52,4.25-3.13C252.24,85,252.32,85.2,257,82c1.22-.87,1-.69,3.39-2.34,3.21-2.26,3.39-2.34,4.51-3.13,1.65-1.22,1.82-1.48,3.13-2.34,1-.69,1.22-.78,2.69-1.74.26-.17.17-.09,2.6-1.82.69-.43,1.3-1,2-1.39l1.48-1c.69-.52,1.39-1,2.08-1.48a17.6,17.6,0,0,0,1.56-1.13s1.74-1.22,1.91-1.3h0s-1.74-3-3.56-6c-1.3-2.08-2-3.3-3.13-4.86-1-1.39-1.56-2.17-2.69-4s-1.74-2.86-2-3.3c-.78-1.48-1-2.17-1.56-3.3a38.87,38.87,0,0,0-3-5c-1.82-2.69-3.82-4.34-6.95-6.95a80.71,80.71,0,0,0-9.72-6.77C247.81,23,246,22,246,22c-1-.52-.87-.43-1.82-1-3-1.56-3.82-2-5.47-2.86C238.17,17.92,237.39,17.49,237,17.83Z"/>
      <path v-bind:style="{ fill: tshirtOptions.colors.sleevesL.hex }" d="M49.78,19c-.09,0-.17,0-.43.17a2.93,2.93,0,0,1-.87.35A39,39,0,0,0,43.1,22.7c-5.64,4-5.21,3.82-6.77,4.77-2.34,1.3-2.43,1-5,2.6a37,37,0,0,0-4.95,3.47,17.87,17.87,0,0,0-4.6,5.38c-1,1.65-1.3,2.26-2.34,4s-1.13,1.74-2.86,4.51c-.87,1.39-1.48,2.34-2.6,4.34s-2.08,3.56-3.21,5.56c-.61,1.13-1.82,3.3-2.86,4.95-.43.69-.26.43-1.22,2-.52.87-.61,1-.78,1.22a14.85,14.85,0,0,1-1,1.22,1.94,1.94,0,0,0-.26.43c0,.09-.09.17-.09.26s.09.17.17.26a1.16,1.16,0,0,0,.43.26,2.89,2.89,0,0,1,.52.26,1.47,1.47,0,0,1,.43.17c.35.17.61.43.61.52a39.68,39.68,0,0,0,4.17,3l4.34,3c3.13,2.17,3.65,2.52,6.51,4.51C25,81.64,24.87,81.56,30,85.12c6.34,4.43,5.3,3.73,6.51,4.6,2.6,1.91,5.38,3.56,7.9,5.56A20.59,20.59,0,0,0,47,96.92c.78.43,1.56.69,1.91.87a16,16,0,0,0,1.56.52,5.42,5.42,0,0,0,2.43,0c.61-.17.61-.26,1.3-.43.52-.09.78-.09,1-.26a1.58,1.58,0,0,0,.17-1,11,11,0,0,0-.26-2.08c-.17-1-.35-1.82-.43-2.17-.26-1.48-.35-1.56-.43-2.08s-.17-.87-.26-1.22a5.74,5.74,0,0,1-.09-1,36.29,36.29,0,0,0-1.22-4.95q-1-2.6-1.56-4.43a29,29,0,0,1-1-3.65,14.32,14.32,0,0,1-.61-3V71.4s0-1.3-.09-2.86c-.09-2-.17-2-.26-4-.09-1-.09-2.34-.09-4.25,0-1.39,0-3.21.09-6.86.09-4.69.17-4.43.09-5.73,0-2.08-.09-2.69-.61-9.12-.43-5.56-.43-6-.26-6.77.35-2.43.87-3,1.3-6.34s-.09-2.69.17-4.95A8.42,8.42,0,0,1,49.78,19Z"/>
    </g>
  </g>
</svg>
