<svg v-if="tshirtOptions.tshirtSex" class="tshirt-pattern" xmlns="http://www.w3.org/2000/svg" style="width: 300px;" viewBox="0 0 345.56 368.06">
  <g>
    <path v-bind:style="{ fill: tshirtOptions.colors.base.hex }" d="M1.4,113.84c8-20.8,14.2-36.1,16.5-41.3,1.7-3.9,3.4-7.2,3.4-7.2,1.2-2.4,2.4-4.7,3.7-7.1s2.7-4.9,4.1-7.3,2.9-4.9,4.4-7.3a18.7,18.7,0,0,1,3-3.7c1.2-1.1,2.6-2.2,14.3-9.4,7.4-4.6,11.1-6.8,12-7.3,4.3-2,5.7-2,22.3-6.4a107.59,107.59,0,0,0,10.5-3c5.9-2.4,7.5-4.5,15-7.5,2.9-1.2,5.2-1.9,7-2.5,2.5-.3,6-.5,10.1-.8,5-.2,8.8-.3,11.9-.3,6.3,0,7.4.2,16,.3h6.7c7-.1,12.2-.4,14.7-.5,21.5-1.1,21.3.8,29.2-.8a57,57,0,0,1,17-1,73.38,73.38,0,0,1,16.6,3.8c4.2,1.5,7.9,3.2,8.3,3.3,4.1,1.9,4.8,2.6,9.6,4.8,2.3,1,4.4,2,7.3,3,.4.1,1.4.5,6.4,1.9,3.2.9,5.5,1.6,5.8,1.7,9.3,2.6,20.9,10.3,22,11a56.2,56.2,0,0,1,4.7,3.2c6.7,8.7,17.5,23.1,21.2,31.5.2.4,2.1,4.7,4.5,10.3,1,2.4,2.1,4.9,3.5,8.1,0,0,4.8,11.4,8.5,21.2.5,1.3.5,1.4.9,2.5.9,2.2,1.1,2.4,1,2.8-.4,1.4-5.9.4-11.6,0-3.8-.3-7.7,0-11.5,0H277.1a12.05,12.05,0,0,1-1.9,0c-.4-.1-.7-.2-.9,0s-.2.9-.1,1.2c.3,1.4,0,2.8.2,4.2s-.1,5.9-.7,12c-.3,3-.7,6.5-.9,10.1.2,3.1.3,6.1.4,9.2s.1,6.1.1,9.2c-.4,17.2-.3,34-.2,50.9,0,3.4,0,6.7.1,10.1.3,27.5.4,54.1,1,81.2,0,2,.2,5.4.3,10.2.1,7.8-.3,8.6-.4,19.6-.1,5.1-.1,11.4-.1,14.8,0,4.9.1,4.5,0,5.5a8.47,8.47,0,0,0,0,2.8,9,9,0,0,1,.3,2.3,1.08,1.08,0,0,1-.1.6,28.92,28.92,0,0,0-.1,3.9c0,.8.1.5.3,2.9a6.93,6.93,0,0,1,0,2.1c-.1.6-.3.8-.4,1.5s.1.8,0,1.1c-.3.8-1.9.9-2.3.9-2.2.1-22.1.1-49.2-.1-3.1.2-7.3.4-12.4.6-12.8.6-26.6,1-39.8.9-5.7,0-13.7-.2-22.2-.5l-8.6-.3c-22.9.2-44.9-.8-67.9.2,0-15,0-31-.1-45.7v-10.3c0-8.9.1-8.8.1-16.9,0-5-.1-4.3-.1-10.9V189s-.2-10.5-.1-15.3c0-1.1,0-1.8.1-3.3v-22.6c0-7.2,0-14.3.1-21.4H5a14.42,14.42,0,0,0-2.1,0,1.48,1.48,0,0,1-.9-.1,1.1,1.1,0,0,1-.3-.6c-.2-1-.3-.6-.7-2.1a13,13,0,0,1-.4-2.1c-.1-1,0-.9-.1-2.8v-1.3A18.62,18.62,0,0,1,1.4,113.84Z"/>
    <path v-bind:style="{ fill: tshirtOptions.colors.belt.hex }" d="M71.6,357.64c33.8-1,58.7-1.4,66.2-1.4,4.7,0,8.8.1,8.8.1,3.2.1,6.9.2,11.8.3,21.2.5,20.4.8,27.9.7,5.4,0,12.3-.4,26-1.2,3-.2,5.5-.3,7.7-.5,1.5-.1,2.5-.2,2.8-.2,5.8-.4,14.8-.6,23.7-.9,7.2-.3,11.8-.4,15.7-.7,2.6-.2,5.3,0,7.9-.5a9.31,9.31,0,0,1,3,0c.1,0,1.1.3,1.1.3h0a18.71,18.71,0,0,0,0,3.4c.1,2.1.4,3,.4,5s0,3-.7,3.7c-.5.5-1,.5-4.1.6,0,0-6.5.2-8.8,0-.2,0,.9.1-32.2-.1-1.9,0-7.9,0-9.8-.1-1.6.1-4,.2-6.9.3-9.3.5-19.2.8-30.3.9H146.7c-4.6-.1-24.8-.2-75.1-.3-.1-1.4-.2-2.9-.2-4.5,0-1.1,0-2.2.1-3.2A10.29,10.29,0,0,0,71.6,357.64Z"/>
    <path v-bind:style="{ fill: tshirtOptions.colors.base.hex }" d="M119.5,3.74a7.17,7.17,0,0,0-1.4.5,5.94,5.94,0,0,0-1.9,2.4,7.5,7.5,0,0,0-.9,1.9c-.2.6-.4,1.6.1,4.3a31.44,31.44,0,0,0,1.1,4.3c.5,1.5.9,2.5,1.7,4.6.8,1.9,1.1,2.8,1.6,3.8a26.39,26.39,0,0,0,2.4,4,36.29,36.29,0,0,0,2.9,3.5c.5.5.7.8.9,1a31.31,31.31,0,0,0,2.6,2.3c1.2,1,2.2,1.6,2.5,1.9a35.46,35.46,0,0,0,5.2,3.1,31.78,31.78,0,0,0,5.4,1.9c.6.2,2.4.7,4.8,1.2a54.4,54.4,0,0,0,6.4.9c4.1.5,7.1.8,8,.8a58.42,58.42,0,0,0,6.4.4c1.4,0,2.8,0,5.5-.1,2.3-.1,3.5-.1,4.4-.2,1.5-.1,1.7-.2,4.9-.6.8-.1,1.2-.1,1.8-.2,1-.2,1.5-.3,3.2-.6s1.4-.3,2.2-.4c1.6-.3,2.8-.7,3.7-.9.4-.1,1.1-.3,2.6-.8s2.4-.7,2.8-.9a41.25,41.25,0,0,0,4.8-1.7c.4-.2,1.6-.7,3.2-1.5.9-.5,1.9-1,3.2-1.8.6-.4,2-1.4,3.7-2.8a30.71,30.71,0,0,0,3-3.1c1.4-1.5,2.1-2.2,3-3.3.8-.9,1.5-2,3.1-4.2a42.19,42.19,0,0,0,3.4-5.3A41,41,0,0,0,228,14a19.18,19.18,0,0,0,1.6-5.1c.4-2.1-.1-1.9.4-4,.2-1,.4-1.8,0-2.4a2.11,2.11,0,0,0-1.7-.8,50.83,50.83,0,0,0-6.7-.7c-4.8-.1-5.7,0-6.4,0l-3.9.3c-1,.1-1.5.2-4.4.5-4.4.5-4.6.5-5,.6a36.34,36.34,0,0,1-4.8.1c-.8,0-1.3-.1-2.3-.1-1.2,0-1.8,0-3.1.1h-3.4c-3.9,0-14.9.3-24.7.6-4.6.1-6.5.2-10.3.3-5.7.1-5.9-.1-14.1,0-3.6,0-5.5.1-8.7,0-.3,0-2.3-.1-4.9-.1-.7,0-1.5.1-3,.1A13,13,0,0,0,119.5,3.74Z"/>
    <path v-bind:style="{ fill: tshirtOptions.colors.neck.hex }" d="M118.1,4.24a1.45,1.45,0,0,0-1,.7.1.1,0,0,1-.1.1,1,1,0,0,0-.1.3c-.1,1.4,10.8,3.3,10.8,3.3,8.2,1.4,12.3,2.1,12.4,2.1,5.7.7,10.4.8,19.6.9,7.4.1,11.5.2,17.5-.1,5.7-.3,10.3-.7,16-1.3s10.2-1.1,11.6-1.3c8.6-1,8-1.2,12.5-1.6,3-.3,6.1-.9,9.1-1.2a8.74,8.74,0,0,0,1.4-.3,4.11,4.11,0,0,0,1.5-.5,1.39,1.39,0,0,0,.5-.7,4,4,0,0,0,0-1.1c0-.9.3-1.1.1-1.4s-.3-.2-1-.3a6.22,6.22,0,0,1-1-.3,27,27,0,0,0-2.8-.4,24.77,24.77,0,0,1-2.7-.3c-2-.2-3.7-.3-4.1-.3a46.65,46.65,0,0,0-7.8.6c-1.9.3-4.5.4-9.7.8-5.6.4-6,0-14.3.2-6.5.1-7,.4-19.4.8-2.9.1-4.4.1-6.1.1-3.2,0-6.1,0-11.9-.1-3.7-.1-6.3-.1-9.5-.2h-4.7c-1.5,0-1.8.1-3.1.1h-4.3a40.49,40.49,0,0,0-4.8.1c-.1,0-1,.2-2.8.6C119.8,3.64,119.3,3.74,118.1,4.24Z"/>
    <path v-bind:style="{ fill: tshirtOptions.colors.neck.hex }" d="M110.5,9.64c-.8,1.6-.7,3.1-.5,5.4a29.67,29.67,0,0,0,.7,4.3,35.07,35.07,0,0,0,1.6,5.8,41,41,0,0,0,3.3,6.9,31.87,31.87,0,0,0,2,3.2,28.62,28.62,0,0,0,3.9,4.6,23.06,23.06,0,0,0,4.1,3.2,49.6,49.6,0,0,0,4.5,2.4,47.68,47.68,0,0,0,8.4,2.7c2.9.7,5.2,1.1,6.9,1.4,2.2.4,3.9.6,5.9.8,2.3.3,4,.5,6.4.7,3.4.3,6,.3,7.7.3.6,0,3.1,0,6.4-.1.3,0,2.6-.1,5.2-.3a191.66,191.66,0,0,0,19.3-2.4,76.83,76.83,0,0,0,8.5-1.9,43.74,43.74,0,0,0,7.8-3.3,32.9,32.9,0,0,0,3.9-2.7,56.28,56.28,0,0,0,5.1-4.5l1.8-1.8a11.56,11.56,0,0,0,1.3-1.5c1.2-1.4,2-2.6,2.4-3.1a26.64,26.64,0,0,0,1.7-2.7c.7-1.1.7-1.3,1.9-3.4.9-1.7,1-1.7,1.7-3,.8-1.5,1.2-2.3,1.7-3.3s.4-1,1.3-3.4a42.22,42.22,0,0,0,1.6-4.7,5.27,5.27,0,0,0,.2-1.9,5.54,5.54,0,0,0-.8-2.1c-.3-.4-.7-.9-2.8-2-1.8-1-2.8-1.4-3.2-1.2-.7.4-.2,1.8-.3,4.3a19.25,19.25,0,0,1-1.1,5.3,27.15,27.15,0,0,1-3,6.4,55.51,55.51,0,0,1-4.3,6.9,47.06,47.06,0,0,1-5.6,6.8,31,31,0,0,1-5.4,4.4,28.84,28.84,0,0,1-2.8,1.8c-.4.2-1.9,1.1-3.9,2a52.81,52.81,0,0,1-8.6,3,76,76,0,0,1-9.2,2A96.45,96.45,0,0,1,175.3,46c-3,.1-5.4.1-6.8.1-2.3,0-4.1-.2-7.8-.4-2.6-.2-4.1-.2-6.1-.4s-3.4-.3-5.3-.6a55.5,55.5,0,0,1-8.6-1.9,33.84,33.84,0,0,1-6-2.3,38.11,38.11,0,0,1-6.5-4.2,33.27,33.27,0,0,1-8-10.3,55.49,55.49,0,0,1-3.1-7.8c-.3-1-.7-2.1-.7-2.1-.2-.6-.3-1.1-.5-1.8a14.35,14.35,0,0,1-.4-2.2,11.61,11.61,0,0,1-.1-2.2,3.78,3.78,0,0,1,.1-.8c0-.1.1-.3.2-.7a5.54,5.54,0,0,1,.5-1.3c.1-.1.3-.4.7-.9a5.93,5.93,0,0,0,.4-.6c.2-.3.3-.4.3-.5.4-.6,2.8-1.3,2.8-1.3A15.69,15.69,0,0,0,113,7,5.28,5.28,0,0,0,110.5,9.64Z"/>
    <path v-bind:style="{ fill: tshirtOptions.colors.sleevesSeamL.hex }" d="M.9,116.34s-.2,1-.3,2a14.69,14.69,0,0,0,1.5,8.2H71.5a2.2,2.2,0,0,0-.1-.8,92.54,92.54,0,0,1,0-12.9c-.9.2-1.9.5-2.8.7-.4,0-.9.1-1.3.1H65.6c-1.5,0-3.9-.1-6.9-.2-12-.3-13.4-.3-22.4-.5l-12-.3c-1.3,0-3.7-.1-7-.1H12.5a8.16,8.16,0,0,0-1.8-.2c-.7,0-.9.1-1.7.1H1.9c.1-.2-.1.4-.1.4-.1.2-.2.5-.4,1S1.1,115.34.9,116.34Z"/>
    <path v-bind:style="{ fill: tshirtOptions.colors.sleevesL.hex }" d="M64.9,22.44c-.1,0-.2,0-.5.2a3.38,3.38,0,0,1-1,.4,44.91,44.91,0,0,0-6.2,3.6c-6.5,4.6-6,4.4-7.8,5.5-2.7,1.5-2.8,1.2-5.8,3a52.76,52.76,0,0,0-7.2,6.1,65.38,65.38,0,0,0-6,7c-1.1,2.6-2.5,5.4-4.1,8.4s-3.4,6.1-5.2,9.3c-1,2.3-6.6,15-10.9,25.6C8,97,6.8,99.74,6,102c0,0-1.5,3.7-2.8,7.2l-.4,1a2.6,2.6,0,0,1-.3.7,4.2,4.2,0,0,1-.2.5c0,.1-.1.2-.1.3l-.1.2a.31.31,0,0,1-.1.2l-.1.2a.31.31,0,0,0-.1.2H13.9c3,0,15.8.2,52,1.1a13.17,13.17,0,0,0,3.3-.2c.8-.2,1.4-.4,2-.6-.5-3.3-7.5-47.4-7.4-50.7s.1-3.3.1-3.3a17.26,17.26,0,0,0,0-3.3c0-2.4-.1-3.1-.7-10.5-.5-6.4-.5-6.9-.3-7.8.4-2.8,1-3.4,1.5-7.3s-.1-3.1.2-5.7C65.1,23.84,65.3,22.54,64.9,22.44Z"/>
    <path v-bind:style="{ fill: tshirtOptions.colors.sleevesSeamR.hex }" d="M344.3,111.74c-.2-.5-.3-.8-.4-1,0,0-.2-.6-.1-.4h-7.1a10.28,10.28,0,0,0-1.7-.1,7.45,7.45,0,0,0-1.8.2h-4.8c-3.3,0-5.8.1-7,.1l-12,.3c-9,.2-10.3.2-22.4.5-3,.1-5.4.1-6.9.2h-1.8c-.4,0-.9-.1-1.3-.1-.9-.2-1.9-.5-2.8-.7a92.54,92.54,0,0,1,0,12.9,2.2,2.2,0,0,1-.1.8h69.4a14.4,14.4,0,0,0,1.5-8.2,9.13,9.13,0,0,0-.3-2A8.15,8.15,0,0,0,344.3,111.74Z"/>
    <path v-bind:style="{ fill: tshirtOptions.colors.sleevesR.hex }" d="M280.8,22c.3,2.6-.3,1.9.2,5.7s1.1,4.5,1.5,7.3c.2.9.2,1.4-.3,7.8-.6,7.4-.7,8.1-.7,10.5-.1,1.1,0,1.2,0,3.3,0,0,0,.1.1,3.3s-6.9,47.4-7.4,50.7c.6.2,1.3.4,2,.6a9.7,9.7,0,0,0,3.3.2c36.2-.9,49-1.1,52-1.1,1.2-.1,2.1-.1,2.8-.1h3.2a11.52,11.52,0,0,0,2-.1h1.6c.5,0,1,.1,1.5.1h1.1a.31.31,0,0,0-.1-.2l-.1-.2a.31.31,0,0,0-.1-.2l-.1-.2a1,1,0,0,0-.1-.3,1.69,1.69,0,0,0-.2-.5,1.54,1.54,0,0,0-.3-.7l-.4-1c-1.3-3.4-2.8-7.2-2.8-7.2-.8-2.3-2-5-4.2-10.5-4.4-10.6-9.9-23.3-10.9-25.6-1.4-2.9-3.2-6-5.2-9.3-1.7-2.7-3.5-5.2-5.2-7.4-2.2-2.8-3.9-5.1-5-6.8s-2.5-3.2-3.6-4.9a11.31,11.31,0,0,0-2.3-2.6,17.41,17.41,0,0,1-1.8-1.2c-.4-.3-.6-.4-1-.7s-.5-.3-1.3-.8c-.5-.3-.4-.3-.9-.6-.1,0-.4-.3-1-.6a6.12,6.12,0,0,1-.6-.4s-.6-.4-1.1-.7l-2.4-1.4c-1.6-.9-3-1.7-4-2.2-.7-.4-1.4-.7-2.2-1.1-1.6-.8-3.1-1.5-4.6-2.1a3.38,3.38,0,0,1-1-.4c-.3-.2-.4-.2-.5-.2C280.4,20.44,280.6,21.74,280.8,22Z"/>
  </g>
</svg>
