<?xml version="1.0" encoding="utf-8"?>
<!-- Generator: Adobe Illustrator 21.1.0, SVG Export Plug-In . SVG Version: 6.00 Build 0)  -->
<svg version="1.1" id="Слой_1" xmlns="http://www.w3.org/2000/svg" xmlns:xlink="http://www.w3.org/1999/xlink" x="0px" y="0px"
	 viewBox="0 0 1366 768" style="enable-background:new 0 0 1366 768;" xml:space="preserve">
<style type="text/css">
	.st0{fill:#FF9A00;}
	.st1{fill:#FCAC4C;}
	.st2{fill:#007CB2;}
	.st3{fill:none;stroke:#603813;stroke-miterlimit:10;stroke-dasharray:7;}
	.st4{fill:#C0C0C0;}
	.st5{fill:#FFFFFF;}
	.st6{fill:none;}
</style>
<g id="XMLID_1_">
	<g>
		<path class="st0" d="M367.7-0.7H1061c-44.9,164.1-210.6,285.9-408.3,285.9c-159.1,0-297.5-78.9-368.9-195.4l-284.2,307L-0.1-0.8
			L368-1L367.7-0.7z"/>
	</g>
	<g>
	</g>
</g>
<path class="st1" d="M682,284c-23.5,1.5-51.6,1.5-83-2c-35.3-3.9-65.6-11.3-90-19c9.3-21.7,18.7-43.3,28-65c21.5,6.6,47,12.9,76,17
	c25.8,3.7,49.4,5,70,5C682.7,241.3,682.3,262.7,682,284z"/>
<path class="st1" d="M510,263c-15.9-5.1-33.6-11.8-52.4-20.7c-20.2-9.5-37.8-19.7-52.6-29.3c12.9-18.4,25.8-36.7,38.8-55.1
	c13.5,7.4,28.6,14.9,45.2,22.1c17,7.3,33.1,13.2,48,18C528,219.7,519,241.3,510,263z"/>
<polygon class="st2" points="1366,-0.8 1366.2,392.7 972.5,-1 "/>
<line class="st3" x1="1033" y1="33" x2="1364.5" y2="362.5"/>
<line class="st3" x1="1044" y1="54" x2="1368.5" y2="377.5"/>
<g>
	<path class="st4" d="M307,0c41.8,126.3,196.3,220,380.5,220S1026.2,126.3,1068,0H307z"/>
</g>
<g>
	<path class="st5" d="M326.3,0c39.2,117.1,183.8,204,356.3,204S999.8,117.1,1039,0H326.3z"/>
</g>
<path class="st1" d="M778,212c-15.1,2.5-31.5,4.6-49,6c-16.3,1.3-31.6,1.9-46,2c-0.3,21.3-0.7,42.7-1,64c17.1-1.2,35.9-3.4,56-7
	c20.5-3.6,39.3-8.2,56-13C788.7,246.7,783.3,229.3,778,212z"/>
<g>
	<g>
		<path class="st0" d="M368.5,171.5c1.9,0,1.9-3,0-3C366.6,168.5,366.6,171.5,368.5,171.5L368.5,171.5z"/>
	</g>
</g>
<path class="st1" d="M312.1,129.7l48.3-39.6c9.9,10.9,22,22.9,36.6,34.9c16.8,13.8,33,24.4,47.2,32.5c-13.1,18.5-26.1,37-39.2,55.5
	c-14.3-9-30.4-20.4-47-35C338.8,161.2,323.7,144.4,312.1,129.7z"/>
<line class="st6" x1="683" y1="220" x2="682" y2="284"/>
<g>
	<path class="st4" d="M1069-1c-41.9,45.9-196.8,80-381.5,80S347.9,44.9,306-1H1069z"/>
</g>
<g>
	<path class="st5" d="M1038.3-1C1015,20,983,27,953.7,35.8c-3.3,0.8-6.7,1.5-10.1,2.2c-6.7,1.4-13.4,2.6-20.1,3.7
		c-3.5,0.7-6.9,1.3-10.4,2c-6.9,1.3-13.9,2.6-20.9,4.1c-2.3,0.3-4.6,0.6-6.9,0.9c-6.9,0.9-13.9,1.9-20.9,2.9
		c-3.1,0.4-6.2,0.9-9.3,1.3C839,55,822,57,805.8,58.1c-3.2,0.3-6.4,0.5-9.7,0.8c-35.8,2.7-73.9,4.2-113.6,4.2
		c-57.2,0-111.4-3-159.7-8.5c-4-0.5-8-0.9-11.9-1.4c-2.5,0-4.9-0.2-7.4-0.4C490,51,477,47,463.5,45.6c-2.7-0.5-5.4-0.9-8.1-1.3
		c-8.1-1.3-16.1-2.7-24.3-4.1c-3.1-0.6-6.3-1.2-9.4-1.8c-6.3-1.3-12.5-2.8-18.8-4.6c-3.6-1-7.3-2.1-10.9-3.3
		c-18-5.8-35.5-13.2-52-21.8c-2.9-1.7-5.9-3.5-8.7-5.4c-1.8-1.4-3.6-2.8-5.4-4.3c3,0,6-0.1,9.1-0.1c16.6-1.6,33.3-2.2,49.9-2.3
		c3.3,0,6.7,0,10,0c3.3-0.2,6.5-0.4,9.7-0.5c3.2-0.1,6.5-0.2,9.7-0.3c3.1-0.1,6.3-0.1,9.4-0.1c3.1,0,6.3,0,9.5,0
		C470-4,506-2,542.7-4.2c2.3,0,4.7,0,7,0c4.7,0,9.3,0.1,13.9,0.2c3.5,0,6.9,0,10.4,0.1c11.5,0.2,23,0.5,34.5,0.7
		c3.8,0.1,7.7,0.1,11.6,0.2c3.6-0.1,7.2-0.2,10.8-0.2c3.6,0,7.2-0.1,10.9-0.1c9.8,0.1,19.5,0.2,29.2,0.5c3.2,0.1,6.5,0.1,9.7,0.2
		c3.6,0.1,7.3,0.1,10.9,0.1c3.6,0,7.3,0,10.9,0c10.6-0.6,21.2-0.9,31.7-1c3.5,0,7,0,10.5,0c5.7-0.1,11.4-0.1,17.1,0
		c2.8,0,5.7,0.1,8.5,0.2c32,1.2,63.6-0.3,96-0.3c3.6,0,7.2,0,10.8,0.1c9.8,0.5,19.7,0.6,29.5,0.6c3.3,0,6.6,0,9.9,0
		c6.9-0.2,13.7-0.3,20.5-0.3c3.4,0,6.8,0,10.3,0C977-3,1007-2,1036-1C1037.5-1,1038.3-1,1038.3-1z"/>
</g>
<g>
	<g>
		<path d="M358.3,120c-2.5,2.6-3.8,3.8-6.4,6.3c3,2.9,4.5,4.4,7.5,7.3c2.6-2.6,3.9-3.8,6.4-6.4c0.8,0.8,1.2,1.2,2.1,1.9
			c-6.1,6.2-9.2,9.3-15.7,15.3c-0.8-0.8-1.2-1.2-2.1-2c3-2.8,4.5-4.2,7.5-7.1c-3-2.9-4.6-4.4-7.5-7.3c-2.9,2.8-4.4,4.2-7.4,7
			c-0.8-0.8-1.2-1.2-2-2c6.4-5.9,9.6-8.9,15.6-14.9C357.1,118.8,357.5,119.2,358.3,120z"/>
		<path d="M372.2,151.7c-4.2,4.2-9.2,3.2-12,0.6c-3.2-2.9-3.2-7.3,0.3-10.8c3.8-3.7,8.5-3.6,11.7-0.7
			C375.6,143.9,375.7,148.3,372.2,151.7z M362.7,143.5c-2.5,2.4-2.9,5.6-0.9,7.5c2,1.9,5.5,1.4,8-1.1c1.9-1.9,3.3-5.2,0.8-7.5
			C368.2,140.1,364.9,141.4,362.7,143.5z"/>
		<path d="M377.4,151.6c1.2-1.2,2.1-2.2,2.9-3.2c0.8,0.7,1.2,1,1.9,1.6c-0.7,0.8-1,1.2-1.7,1.9c0,0,0,0,0.1,0.1
			c1.7-0.5,3.9-0.6,5.9,1.1c1.7,1.4,2,3.4,1.3,5.2c0,0,0,0,0.1,0c1-0.3,2-0.4,2.8-0.4c1.3,0.1,2.4,0.4,3.6,1.4
			c1.7,1.3,3.2,4.3-0.7,8.4c-2.7,2.8-4,4.1-6.8,6.9c-0.9-0.7-1.4-1.1-2.3-1.8c2.6-2.6,3.9-3.9,6.5-6.6c2.2-2.2,2.6-4.3,0.7-5.8
			c-1.3-1-3.2-1-4.5-0.2c-0.4,0.2-0.8,0.5-1.2,0.9c-2.8,2.9-4.2,4.3-7.1,7.1c-0.9-0.7-1.3-1.1-2.2-1.8c2.8-2.7,4.2-4.1,6.9-6.8
			c1.8-1.8,2.2-3.9,0.5-5.3c-1.4-1.2-3.4-1-4.8-0.2c-0.4,0.2-0.8,0.5-1.2,0.9c-2.7,2.7-4.1,4.1-6.9,6.8c-0.9-0.7-1.3-1.1-2.2-1.9
			C372.5,156.6,374.1,154.9,377.4,151.6z"/>
		<path d="M397.3,173.1c-2.8,2.9-1.9,5.7,0.5,7.5c1.7,1.3,3,1.8,4.2,2.1c-0.4,0.7-0.7,1.1-1.1,1.9c-1.2-0.3-3-1-5.1-2.5
			c-4-3.1-4-7.3-0.5-10.8c3.4-3.5,8.4-4.6,12.2-1.8c4.3,3.1,2.2,7.4,0.1,9.6c-0.4,0.4-0.8,0.8-1.1,1
			C402.7,177.2,400.9,175.9,397.3,173.1z M405.7,176.8c1.3-1.4,2.7-4,0-6c-2.4-1.8-5.3-0.6-7,0.8
			C401.5,173.7,402.9,174.7,405.7,176.8z"/>
	</g>
</g>
<g>
	<g>
		<path d="M439.5,208.9c-0.9-0.1-2.6-0.6-4.6-1.7c-4.4-2.5-6.1-6.7-3.3-10.9c2.7-4,7.6-4.9,12.3-2.3c1.9,1,2.9,2,3.2,2.6
			c-0.5,0.5-0.8,0.7-1.3,1.1c-0.6-0.7-1.5-1.5-2.7-2.2c-3.6-2-7.1-1.4-9.3,2c-2.1,3.2-1.3,6.5,2.5,8.6c1.2,0.7,2.6,1.2,3.6,1.3
			C439.7,208,439.7,208.3,439.5,208.9z"/>
		<path d="M447.9,213.9c0.2-0.5,0.3-0.8,0.5-1.3c0,0,0,0-0.1,0c-1.1,0.4-2.7,0.5-4.4-0.4c-2.3-1.2-2.7-3.2-1.8-4.6
			c1.4-2.3,4.6-2.2,8.9,0c0-0.1,0.1-0.1,0.1-0.2c0.5-0.8,1-2.3-1.3-3.5c-1-0.5-2.3-0.8-3.3-0.8c0.1-0.6,0.1-0.8,0.2-1.4
			c1.2,0,2.8,0.3,4.2,1.1c3.4,1.8,3.1,4.2,2,6.1c-0.8,1.4-1.2,2.2-2.1,3.6c-0.5,0.8-0.9,1.7-1.2,2.4
			C449.1,214.5,448.7,214.3,447.9,213.9z M450.5,208.9c-2.2-1.2-5-2.2-6.1-0.4c-0.7,1.1-0.1,2.1,1,2.7c1.5,0.8,2.9,0.5,3.7-0.2
			c0.2-0.1,0.3-0.3,0.4-0.5C449.9,209.9,450.1,209.6,450.5,208.9z"/>
		<path d="M462.5,205.2c-0.6,1.1-0.9,1.7-1.5,2.8c1.2,0.6,1.8,0.8,3,1.4c-0.3,0.5-0.4,0.8-0.7,1.4c-1.2-0.6-1.8-0.8-3-1.4
			c-1.2,2.1-1.7,3.1-2.9,5.2c-0.7,1.2-0.6,2.1,0.5,2.6c0.6,0.3,1,0.4,1.3,0.5c-0.3,0.5-0.4,0.8-0.6,1.4c-0.5-0.1-1.2-0.3-2-0.7
			c-1-0.5-1.6-1.1-1.9-1.8c-0.3-0.8,0-1.8,0.6-2.9c1.2-2.1,1.8-3.2,3-5.3c-0.7-0.3-1.1-0.5-1.8-0.9c0.3-0.5,0.5-0.8,0.8-1.3
			c0.7,0.3,1.1,0.5,1.8,0.9c0.5-0.9,0.8-1.4,1.3-2.3C461.1,204.9,461.5,205,462.5,205.2z"/>
		<path d="M467.6,223.2c0.2-0.5,0.3-0.8,0.5-1.3c0,0,0,0-0.1,0c-1.1,0.5-2.7,0.6-4.4-0.2c-2.4-1.1-2.9-3-2.1-4.5
			c1.3-2.4,4.5-2.5,9-0.5c0-0.1,0.1-0.1,0.1-0.2c0.4-0.8,0.9-2.4-1.5-3.5c-1.1-0.5-2.4-0.7-3.4-0.6c0.1-0.6,0.1-0.8,0.1-1.4
			c1.2-0.1,2.8,0.2,4.3,0.8c3.6,1.6,3.4,4,2.4,6c-0.8,1.5-1.1,2.2-1.9,3.7c-0.4,0.9-0.8,1.7-1,2.4
			C468.8,223.8,468.4,223.6,467.6,223.2z M469.9,218.1c-2.3-1.1-5.1-1.9-6.2,0c-0.6,1.2,0,2.1,1.1,2.6c1.5,0.7,3,0.3,3.7-0.4
			c0.2-0.2,0.3-0.3,0.4-0.5C469.4,219.1,469.5,218.8,469.9,218.1z"/>
		<path d="M480.1,210.9c0.8,0.4,1.3,0.5,2.1,0.9c-2.8,5.9-4.2,8.8-7.1,14.6c-0.9-0.4-1.3-0.5-2.2-0.9
			C475.9,219.7,477.3,216.8,480.1,210.9z"/>
		<path d="M492.3,227c-1.7,3.8-5.6,4.2-8.6,3.1c-3.3-1.3-4.9-4.3-3.4-7.4c1.6-3.3,5.1-4.3,8.5-3C492.3,221,493.7,223.9,492.3,227z
			 M482.6,223.5c-1,2.2-0.3,4.5,1.9,5.3c2.1,0.8,4.5-0.2,5.5-2.5c0.8-1.7,0.7-4.3-1.9-5.2C485.6,220,483.5,221.6,482.6,223.5z"/>
		<path d="M507.9,226.6c-0.3,0.7-0.7,1.5-1.2,2.8c-1,2.4-1.4,3.6-2.4,6c-1,2.4-2.2,3.6-3.8,4.1c-1.6,0.5-3.6,0.2-5.2-0.3
			c-1.5-0.5-3.1-1.4-3.8-2.3c0.5-0.5,0.7-0.7,1.2-1.2c0.6,0.7,1.8,1.5,3.4,2.1c2.4,0.8,4.5,0.4,5.6-2.2c0.2-0.5,0.3-0.7,0.5-1.1
			c0,0,0,0-0.1,0c-1.1,0.7-2.8,1-4.7,0.4c-3.1-1.1-4.4-4-3.1-6.8c1.5-3.4,5-4.5,7.8-3.5c2.1,0.7,2.9,2,3.1,3.1c0,0,0,0,0.1,0
			c0.3-0.6,0.4-0.9,0.7-1.5C506.7,226.2,507.1,226.3,507.9,226.6z M503.9,229.9c0.1-0.3,0.2-0.6,0.2-0.9c0-1.2-0.7-2.5-2.3-3
			c-2.1-0.7-4.3,0.3-5.3,2.6c-0.9,2-0.4,4.1,2.1,4.9c1.4,0.5,3,0.2,4-0.9c0.3-0.3,0.5-0.6,0.6-0.9
			C503.4,231,503.6,230.6,503.9,229.9z"/>
	</g>
</g>
<g>
	<g>
		<path d="M546.7,248.7c-1,0.3-2.9,0.4-5.2-0.1c-5.4-1.1-8.7-5.5-7.3-11.7c1.3-6,6.2-9.1,11.9-7.9c2.3,0.5,3.7,1.3,4.2,1.8
			c-0.4,0.8-0.6,1.1-1,1.9c-0.8-0.6-2.1-1.2-3.6-1.6c-4.4-0.9-7.9,1.3-9,6.3c-1,4.7,1,8.3,5.6,9.3c1.5,0.3,3.1,0.3,4.2,0
			C546.6,247.4,546.7,247.9,546.7,248.7z"/>
		<path d="M563,245.2c-0.9,5.1-4.8,6.7-8.2,6.1c-3.7-0.7-6.1-4-5.2-8.4c0.9-4.6,4.4-6.7,8.1-6C561.6,237.6,563.8,241,563,245.2z
			 M552.2,243.3c-0.6,3,0.7,5.6,3.1,6.1c2.4,0.5,4.6-1.5,5.2-4.6c0.4-2.3-0.2-5.5-3.1-6.1C554.5,238.2,552.7,240.7,552.2,243.3z"/>
		<path d="M566.7,242.7c0.2-1.4,0.4-2.6,0.5-3.8c0.9,0.2,1.3,0.2,2.2,0.4c-0.1,0.9-0.1,1.4-0.2,2.3c0,0,0,0,0.1,0
			c0.9-1.2,2.7-2.2,4.9-1.9c1.9,0.3,4.6,1.9,3.9,6.7c-0.5,3.3-0.8,5-1.3,8.3c-1-0.2-1.5-0.2-2.5-0.4c0.5-3.2,0.8-4.8,1.3-8
			c0.4-2.2-0.2-4.2-2.5-4.6c-1.6-0.3-3.1,0.7-3.7,2c-0.2,0.3-0.3,0.7-0.4,1.1c-0.6,3.3-0.8,5-1.4,8.3c-1-0.2-1.5-0.3-2.5-0.4
			C565.6,248.7,566,246.7,566.7,242.7z"/>
		<path d="M580.9,252.7c0.7,0.6,1.9,1.3,3.2,1.5c1.8,0.3,2.8-0.5,3-1.7c0.2-1.2-0.5-2-2.2-2.9c-2.3-1.3-3.3-2.8-3.1-4.5
			c0.3-2.2,2.4-3.8,5.3-3.4c1.4,0.2,2.5,0.8,3.2,1.3c-0.3,0.7-0.5,1.1-0.9,1.8c-0.5-0.4-1.4-1-2.7-1.2c-1.5-0.2-2.4,0.5-2.6,1.6
			c-0.2,1.1,0.6,1.8,2.3,2.7c2.3,1.3,3.3,2.6,3,4.7c-0.3,2.4-2.5,3.9-5.8,3.4c-1.5-0.2-2.9-0.8-3.8-1.5
			C580.3,253.8,580.5,253.4,580.9,252.7z"/>
		<path d="M597.5,239.3c-0.2,1.6-0.3,2.4-0.5,4c1.4,0.2,2.1,0.3,3.6,0.4c-0.1,0.8-0.1,1.2-0.2,1.9c-1.4-0.2-2.1-0.3-3.6-0.4
			c-0.4,3-0.6,4.5-0.9,7.5c-0.2,1.7,0.2,2.8,1.6,2.9c0.7,0.1,1.2,0.1,1.5,0c0,0.8-0.1,1.1-0.1,1.9c-0.5,0.1-1.3,0.2-2.3,0.1
			c-1.2-0.1-2.1-0.7-2.6-1.4c-0.6-0.8-0.7-2.1-0.5-3.8c0.4-3,0.6-4.6,1-7.6c-0.8-0.1-1.3-0.2-2.1-0.3c0.1-0.8,0.2-1.2,0.3-1.9
			c0.8,0.1,1.3,0.2,2.1,0.3c0.2-1.3,0.3-2,0.4-3.3C596,239.6,596.5,239.5,597.5,239.3z"/>
		<path d="M602.9,248.5c0.2-1.6,0.3-3.1,0.4-4.4c0.9,0.1,1.3,0.1,2.2,0.2c-0.1,1.1-0.1,1.7-0.2,2.8c0,0,0.1,0,0.1,0
			c0.8-1.8,2.5-2.8,4.1-2.7c0.3,0,0.5,0.1,0.7,0.2c-0.1,1-0.1,1.4-0.2,2.4c-0.2-0.1-0.5-0.1-0.8-0.2c-1.8-0.2-3.1,1-3.7,2.9
			c-0.1,0.3-0.2,0.7-0.2,1.2c-0.3,3-0.5,4.5-0.8,7.4c-1-0.1-1.5-0.2-2.5-0.3C602.2,254.2,602.4,252.3,602.9,248.5z"/>
		<path d="M623.2,256.3c-0.1,1.4-0.2,2.7-0.2,3.8c-0.9-0.1-1.4-0.1-2.3-0.2c0-0.9,0-1.4,0-2.3c0,0,0,0-0.1,0
			c-0.8,1.1-2.4,2.4-4.8,2.2c-2.2-0.2-4.7-1.7-4.2-6.6c0.3-3.3,0.5-4.9,0.8-8.2c1,0.1,1.5,0.1,2.5,0.2c-0.3,3.1-0.4,4.6-0.7,7.7
			c-0.3,2.7,0.4,4.5,2.7,4.7c1.7,0.2,3-0.9,3.5-2c0.2-0.4,0.3-0.8,0.3-1.3c0.3-3.4,0.4-5.2,0.7-8.6c1,0.1,1.5,0.1,2.5,0.2
			C623.7,250.2,623.5,252.2,623.2,256.3z"/>
		<path d="M637.2,260.6c-0.7,0.3-2.2,0.7-4.1,0.6c-4.2-0.3-6.8-3.4-6.4-7.6c0.3-4.3,3.4-7.2,7.9-6.9c1.5,0.1,2.8,0.6,3.4,0.9
			c-0.3,0.8-0.4,1.2-0.7,1.9c-0.6-0.4-1.5-0.8-2.9-0.8c-3.2-0.2-5,2-5.2,5c-0.2,3.2,1.7,5.4,4.5,5.6c1.4,0.1,2.4-0.2,3.2-0.5
			C637,259.4,637,259.8,637.2,260.6z"/>
		<path d="M644.4,243.4c-0.1,1.6-0.1,2.4-0.2,4c1.4,0.1,2.1,0.1,3.6,0.2c0,0.8,0,1.2-0.1,1.9c-1.4-0.1-2.2-0.1-3.6-0.2
			c-0.1,3-0.2,4.5-0.4,7.6c-0.1,1.7,0.4,2.7,1.8,2.8c0.7,0,1.2,0,1.5-0.1c0,0.8,0,1.2,0,1.9c-0.5,0.2-1.3,0.3-2.3,0.2
			c-1.2-0.1-2.1-0.5-2.7-1.2c-0.7-0.8-0.9-2.1-0.8-3.7c0.2-3.1,0.2-4.6,0.4-7.7c-0.9,0-1.3-0.1-2.1-0.1c0-0.8,0.1-1.2,0.1-1.9
			c0.9,0,1.3,0.1,2.1,0.1c0.1-1.3,0.1-2,0.2-3.4C643,243.7,643.5,243.6,644.4,243.4z"/>
		<path d="M662.8,255c-0.1,5.2-3.7,7.4-7.1,7.3c-3.8-0.1-6.6-3-6.5-7.5c0.2-4.7,3.3-7.3,7.1-7.2C660.3,247.7,662.9,250.7,662.8,255z
			 M651.8,254.8c-0.1,3.1,1.6,5.5,4.1,5.5c2.4,0.1,4.3-2.2,4.4-5.3c0.1-2.4-1.1-5.4-4-5.5S651.9,252.2,651.8,254.8z"/>
		<path d="M666,252.5c0-1.7,0-3.1-0.1-4.4c0.9,0,1.3,0,2.2,0c0,1.1,0,1.7,0.1,2.8c0,0,0.1,0,0.1,0c0.6-1.9,2.2-3.1,3.8-3
			c0.3,0,0.5,0,0.7,0.1c0,1,0,1.4,0,2.4c-0.3-0.1-0.5-0.1-0.9-0.1c-1.8,0-3,1.3-3.4,3.3c-0.1,0.3-0.1,0.8-0.1,1.2c0,3,0,4.5-0.1,7.5
			c-1,0-1.5,0-2.5,0C666,258.3,666,256.4,666,252.5z"/>
	</g>
</g>
<g>
	<g>
		<path d="M698.7,254.8c-0.4,2.3-0.7,3.5-1.1,5.8c-0.8,0.1-1.2,0.1-2,0.1c1.5-7.4,2.3-11,3.7-18.4c0.9-0.1,1.4-0.1,2.3-0.2
			c2.6,7.1,4,10.6,6.7,17.7c-0.8,0.1-1.2,0.1-2.1,0.2c-0.8-2.2-1.3-3.3-2.1-5.6C701.9,254.6,700.8,254.7,698.7,254.8z M703.4,252.7
			c-0.8-2-1.1-3.1-1.9-5.1c-0.4-1.2-0.7-2.2-1-3.2c0,0,0,0,0,0c-0.1,1.1-0.3,2.2-0.5,3.3c-0.4,2.1-0.6,3.2-1,5.3
			C700.7,252.9,701.6,252.8,703.4,252.7z"/>
		<path d="M710.1,259.7c0-0.9-0.1-2.2-0.2-3.4c-0.6-6.3-0.9-9.4-1.5-15.7c0.8-0.1,1.1-0.1,1.9-0.2c0.3,3.3,0.5,4.9,0.8,8.1
			c0,0,0,0,0,0c0.5-1.5,1.7-2.5,3.4-2.7c2.6-0.2,4.8,2.3,5.2,6.2c0.5,4.6-1.7,7.2-4.1,7.4c-1.6,0.1-2.9-0.5-3.9-2.1c0,0,0,0-0.1,0
			c0,0.9,0.1,1.3,0.1,2.1C711.2,259.6,710.8,259.7,710.1,259.7z M711.7,254.3c0,0.3,0.1,0.6,0.2,0.8c0.5,1.6,1.8,2.6,3.2,2.5
			c2.1-0.2,3.1-2.3,2.7-5.3c-0.3-2.6-1.6-4.7-3.7-4.5c-1.3,0.1-2.4,1.3-2.7,3.2c0,0.3-0.1,0.6,0,1
			C711.5,252.9,711.6,253.4,711.7,254.3z"/>
		<path d="M731.9,250.9c0.6,4.8-1.9,7.2-4.5,7.5c-2.9,0.3-5.5-2-5.9-6.1c-0.5-4.3,1.5-7.1,4.5-7.4
			C729,244.5,731.4,246.9,731.9,250.9z M723.4,252c0.3,2.8,1.9,4.8,3.9,4.6c1.9-0.2,3-2.5,2.6-5.4c-0.3-2.2-1.5-4.9-3.8-4.6
			C723.8,246.8,723.1,249.5,723.4,252z"/>
		<path d="M743.7,252.5c0.2,1.3,0.4,2.5,0.6,3.5c-0.7,0.1-1,0.1-1.7,0.2c-0.2-0.8-0.2-1.3-0.4-2.1c0,0,0,0,0,0
			c-0.4,1.1-1.3,2.6-3.2,2.9c-1.7,0.2-3.9-0.7-4.5-5.2c-0.4-3-0.6-4.5-1-7.5c0.8-0.1,1.2-0.1,1.9-0.2c0.4,2.9,0.6,4.3,1,7.1
			c0.3,2.5,1.2,4,3,3.8c1.3-0.2,2.1-1.4,2.3-2.5c0.1-0.4,0.1-0.8,0-1.2c-0.5-3.2-0.7-4.7-1.1-7.9c0.8-0.1,1.2-0.2,1.9-0.3
			C742.9,246.9,743.2,248.7,743.7,252.5z"/>
		<path d="M747.3,238.7c0.2,1.5,0.3,2.2,0.6,3.7c1.1-0.2,1.6-0.2,2.7-0.4c0.1,0.7,0.2,1.1,0.3,1.8c-1.1,0.2-1.7,0.2-2.8,0.4
			c0.4,2.8,0.7,4.2,1.1,6.9c0.2,1.6,0.8,2.4,1.9,2.3c0.5-0.1,0.9-0.2,1.1-0.3c0.1,0.7,0.2,1,0.4,1.7c-0.3,0.2-0.9,0.5-1.7,0.6
			c-0.9,0.1-1.7-0.1-2.3-0.7c-0.6-0.6-1-1.7-1.3-3.2c-0.4-2.8-0.6-4.2-1.1-7c-0.7,0.1-1,0.1-1.6,0.2c-0.1-0.7-0.2-1.1-0.3-1.8
			c0.7-0.1,1-0.1,1.6-0.2c-0.2-1.2-0.3-1.9-0.5-3.1C746.2,239.2,746.6,239,747.3,238.7z"/>
		<path d="M767.9,248.7c0.2,1.3,0.5,2.5,0.7,3.5c-0.7,0.1-1,0.2-1.7,0.3c-0.2-0.8-0.3-1.2-0.5-2.1c0,0,0,0,0,0
			c-0.3,1.1-1.2,2.7-3.1,3c-1.7,0.3-3.9-0.5-4.7-5c-0.5-3-0.8-4.5-1.3-7.5c0.8-0.1,1.2-0.2,1.9-0.3c0.5,2.8,0.7,4.3,1.2,7.1
			c0.4,2.4,1.3,4,3.1,3.7c1.3-0.2,2-1.5,2.2-2.5c0-0.4,0-0.8,0-1.2c-0.6-3.1-0.9-4.7-1.4-7.9c0.8-0.1,1.1-0.2,1.9-0.3
			C766.9,243.2,767.2,245,767.9,248.7z"/>
		<path d="M771.1,249.3c0.7,0.3,1.8,0.6,2.7,0.5c1.4-0.3,1.9-1.2,1.7-2.3c-0.2-1.1-0.9-1.6-2.4-2c-2.1-0.5-3.2-1.6-3.5-3.1
			c-0.4-2.1,0.7-4,2.9-4.4c1.1-0.2,2.1,0,2.7,0.3c-0.1,0.7-0.1,1.1-0.1,1.8c-0.5-0.2-1.3-0.5-2.3-0.3c-1.1,0.2-1.6,1.1-1.4,2.1
			c0.2,1.1,0.9,1.4,2.4,1.8c2,0.5,3.2,1.4,3.6,3.3c0.5,2.2-0.7,4.1-3.2,4.6c-1.2,0.2-2.3,0.1-3.2-0.3
			C771,250.5,771,250.1,771.1,249.3z"/>
	</g>
</g>
</svg>
